<?xml version="1.0" encoding="UTF-8" standalone="no"?>
<!-- Created with Inkscape (http://www.inkscape.org/) -->

<svg
   xmlns:dc="http://purl.org/dc/elements/1.1/"
   xmlns:cc="http://creativecommons.org/ns#"
   xmlns:rdf="http://www.w3.org/1999/02/22-rdf-syntax-ns#"
   xmlns:svg="http://www.w3.org/2000/svg"
   xmlns="http://www.w3.org/2000/svg"
   xmlns:sodipodi="http://sodipodi.sourceforge.net/DTD/sodipodi-0.dtd"
   xmlns:inkscape="http://www.inkscape.org/namespaces/inkscape"
   version="1.1"
   id="svg2"
   xml:space="preserve"
   width="226.66933"
   height="226.66933"
   viewBox="0 0 226.66932 226.66932"
   sodipodi:docname="chicken.svg"
   inkscape:version="0.92.2 5c3e80d, 2017-08-06"><metadata
     id="metadata8"><rdf:RDF><cc:Work
         rdf:about=""><dc:format>image/svg+xml</dc:format><dc:type
           rdf:resource="http://purl.org/dc/dcmitype/StillImage" /><dc:title></dc:title></cc:Work></rdf:RDF></metadata><defs
     id="defs6"><clipPath
       clipPathUnits="userSpaceOnUse"
       id="clipPath20"><path
         d="M 0,800 H 800 V 0 H 0 Z"
         id="path18"
         inkscape:connector-curvature="0" /></clipPath><clipPath
       clipPathUnits="userSpaceOnUse"
       id="clipPath160"><path
         d="m 563.393,426.148 c 0,-46.945 38.055,-85.001 84.998,-85.001 v 0 c 46.946,0 85.002,38.056 85.002,85.001 v 0 c 0,46.944 -38.056,85.001 -85.002,85.001 v 0 c -46.943,0 -84.998,-38.057 -84.998,-85.001"
         id="path158"
         inkscape:connector-curvature="0" /></clipPath><clipPath
       clipPathUnits="userSpaceOnUse"
       id="clipPath244"><path
         d="m 563.393,646.682 c 0,-46.945 38.055,-85.002 84.998,-85.002 v 0 c 46.946,0 85.002,38.057 85.002,85.002 v 0 c 0,46.943 -38.056,85 -85.002,85 v 0 c -46.943,0 -84.998,-38.057 -84.998,-85"
         id="path242"
         inkscape:connector-curvature="0" /></clipPath><clipPath
       clipPathUnits="userSpaceOnUse"
       id="clipPath336"><path
         d="M 0,800 H 800 V 0 H 0 Z"
         id="path334"
         inkscape:connector-curvature="0" /></clipPath><clipPath
       clipPathUnits="userSpaceOnUse"
       id="clipPath352"><path
         d="m 314.999,646.682 c 0,-46.945 38.055,-85.002 85,-85.002 v 0 c 46.945,0 85.001,38.057 85.001,85.002 v 0 c 0,46.943 -38.056,85 -85.001,85 v 0 c -46.945,0 -85,-38.057 -85,-85"
         id="path350"
         inkscape:connector-curvature="0" /></clipPath><clipPath
       clipPathUnits="userSpaceOnUse"
       id="clipPath484"><path
         d="m 372.237,647.344 h 11.044 v -27.809 h -11.044 z"
         id="path482"
         inkscape:connector-curvature="0" /></clipPath><clipPath
       clipPathUnits="userSpaceOnUse"
       id="clipPath488"><path
         d="m 372.237,619.535 h 11.044 v 27.809 h -11.044 z"
         id="path486"
         inkscape:connector-curvature="0" /></clipPath><clipPath
       clipPathUnits="userSpaceOnUse"
       id="clipPath508"><path
         d="m 412.064,649.341 h 11.4 v -29.406 h -11.4 z"
         id="path506"
         inkscape:connector-curvature="0" /></clipPath><clipPath
       clipPathUnits="userSpaceOnUse"
       id="clipPath512"><path
         d="m 412.064,619.935 h 11.399 v 29.407 h -11.399 z"
         id="path510"
         inkscape:connector-curvature="0" /></clipPath><clipPath
       clipPathUnits="userSpaceOnUse"
       id="clipPath532"><path
         d="m 367.737,645.614 h 9.38 v -25.461 h -9.38 z"
         id="path530"
         inkscape:connector-curvature="0" /></clipPath><clipPath
       clipPathUnits="userSpaceOnUse"
       id="clipPath536"><path
         d="m 367.737,620.153 h 9.38 v 25.461 h -9.38 z"
         id="path534"
         inkscape:connector-curvature="0" /></clipPath><clipPath
       clipPathUnits="userSpaceOnUse"
       id="clipPath556"><path
         d="m 405.746,648.875 h 10.91 v -26.944 h -10.91 z"
         id="path554"
         inkscape:connector-curvature="0" /></clipPath><clipPath
       clipPathUnits="userSpaceOnUse"
       id="clipPath560"><path
         d="m 405.746,621.931 h 10.91 v 26.944 h -10.91 z"
         id="path558"
         inkscape:connector-curvature="0" /></clipPath><clipPath
       clipPathUnits="userSpaceOnUse"
       id="clipPath584"><path
         d="M 0,800 H 800 V 0 H 0 Z"
         id="path582"
         inkscape:connector-curvature="0" /></clipPath><clipPath
       clipPathUnits="userSpaceOnUse"
       id="clipPath596"><path
         d="m 563.393,204.585 c 0,-46.946 38.055,-85.002 84.998,-85.002 v 0 c 46.946,0 85.002,38.056 85.002,85.002 v 0 c 0,46.943 -38.056,85 -85.002,85 v 0 c -46.943,0 -84.998,-38.057 -84.998,-85"
         id="path594"
         inkscape:connector-curvature="0" /></clipPath><clipPath
       clipPathUnits="userSpaceOnUse"
       id="clipPath672"><path
         d="m 67.188,426.148 c 0,-46.945 38.054,-85.001 84.998,-85.001 v 0 c 46.946,0 85.002,38.056 85.002,85.001 v 0 c 0,46.944 -38.056,85.001 -85.002,85.001 v 0 c -46.944,0 -84.998,-38.057 -84.998,-85.001"
         id="path670"
         inkscape:connector-curvature="0" /></clipPath><clipPath
       clipPathUnits="userSpaceOnUse"
       id="clipPath772"><path
         d="m 67.188,204.585 c 0,-46.946 38.054,-85.002 84.998,-85.002 v 0 c 46.946,0 85.002,38.056 85.002,85.002 v 0 c 0,46.943 -38.056,85 -85.002,85 v 0 c -46.944,0 -84.998,-38.057 -84.998,-85"
         id="path770"
         inkscape:connector-curvature="0" /></clipPath><clipPath
       clipPathUnits="userSpaceOnUse"
       id="clipPath848"><path
         d="m 314.999,204.585 c 0,-46.946 38.055,-85.002 84.999,-85.002 v 0 c 46.946,0 85.003,38.056 85.003,85.002 v 0 c 0,46.943 -38.057,85 -85.003,85 v 0 c -46.944,0 -84.999,-38.057 -84.999,-85"
         id="path846"
         inkscape:connector-curvature="0" /></clipPath><clipPath
       clipPathUnits="userSpaceOnUse"
       id="clipPath912"><path
         d="M 0,800 H 800 V 0 H 0 Z"
         id="path910"
         inkscape:connector-curvature="0" /></clipPath><clipPath
       clipPathUnits="userSpaceOnUse"
       id="clipPath924"><path
         d="m 67.188,646.682 c 0,-46.945 38.054,-85.002 84.998,-85.002 v 0 c 46.946,0 85.002,38.057 85.002,85.002 v 0 c 0,46.943 -38.056,85 -85.002,85 v 0 c -46.944,0 -84.998,-38.057 -84.998,-85"
         id="path922"
         inkscape:connector-curvature="0" /></clipPath><clipPath
       clipPathUnits="userSpaceOnUse"
       id="clipPath1008"><path
         d="m 314.999,426.148 c 0,-46.945 38.055,-85.001 85,-85.001 v 0 c 46.945,0 85.001,38.056 85.001,85.001 v 0 c 0,46.944 -38.056,85.001 -85.001,85.001 v 0 c -46.945,0 -85,-38.057 -85,-85.001"
         id="path1006"
         inkscape:connector-curvature="0" /></clipPath></defs><sodipodi:namedview
     pagecolor="#ffffff"
     bordercolor="#666666"
     borderopacity="1"
     objecttolerance="10"
     gridtolerance="10"
     guidetolerance="10"
     inkscape:pageopacity="0"
     inkscape:pageshadow="2"
     inkscape:window-width="1440"
     inkscape:window-height="855"
     id="namedview4"
     showgrid="false"
     inkscape:zoom="0.60187495"
     inkscape:cx="-27.533563"
     inkscape:cy="-104.65445"
     inkscape:window-x="0"
     inkscape:window-y="1"
     inkscape:window-maximized="1"
     inkscape:current-layer="g10" /><g
     id="g10"
     inkscape:groupmode="layer"
     inkscape:label="277"
     transform="matrix(1.3333333,0,0,-1.3333333,-419.99866,386.11332)"><g
       id="g4829"><g
         transform="translate(404.8936,40.665)"
         id="g122" /><path
         d="m 485.001,204.585 c 0,46.943 -38.057,85 -85.003,85 -46.944,0 -84.999,-38.057 -84.999,-85 0,-46.945 38.055,-85.002 84.999,-85.002 46.946,0 85.003,38.057 85.003,85.002"
         style="fill:#6980a2;fill-opacity:1;fill-rule:nonzero;stroke:none"
         id="path152"
         inkscape:connector-curvature="0" /><g
         id="g844"
         clip-path="url(#clipPath848)"><g
           id="g850"
           transform="translate(449.9902,165.2588)"><path
             d="m 0,0 c -1.174,3.669 -2.654,7.241 -4.562,10.362 -2.271,3.733 -3.878,7.85 -5.022,11.873 -1.954,6.869 -2.541,13.469 -2.732,17.411 0,0.153 0.014,0.302 0.014,0.456 0,0.682 -0.065,1.348 -0.103,2.02 -0.009,0.803 0,1.299 0,1.299 l -0.056,-0.09 c -1.644,19.158 -17.686,34.204 -37.267,34.204 h -0.006 c -19.558,0 -35.595,-15.011 -37.264,-34.139 l -0.02,0.025 c 0,0 0.005,-0.109 0.008,-0.284 -0.083,-1.005 -0.155,-2.011 -0.155,-3.036 0,-0.313 0.03,-0.62 0.038,-0.933 -0.212,-3.772 -0.769,-9.662 -2.41,-15.876 -1.16,-4.361 -2.839,-8.875 -5.324,-12.93 -1.806,-2.953 -3.238,-6.306 -4.386,-9.761 -4.505,-13.551 -4.519,-28.791 -4.519,-28.791 0.149,-6.139 1.33,-12.018 3.36,-17.486 H 0.943 c 2.037,5.489 3.221,11.393 3.363,17.558 0,0 -0.019,14.745 -4.306,28.118"
             style="fill:#ffffff;fill-opacity:1;fill-rule:nonzero;stroke:none"
             id="path852"
             inkscape:connector-curvature="0" /></g><g
           id="g854"
           transform="translate(456.7354,152.041)"><path
             d="M 0,0 C 0,0.01 -0.003,0.015 -0.003,0.023 0.038,-0.008 0.069,-0.035 0.103,-0.066 0.14,-0.089 0.172,-0.116 0.204,-0.141 0.14,-0.089 0.063,-0.049 0,0"
             style="fill:#b66916;fill-opacity:1;fill-rule:nonzero;stroke:none"
             id="path856"
             inkscape:connector-curvature="0" /></g><g
           id="g858"
           transform="translate(405.085,283.5039)"><path
             d="m 0,0 c 2.102,-4.947 2.958,-9.511 3.802,-13.424 0.412,-2.032 0.818,-3.201 1.285,-5.121 0.434,-2.023 0.838,-4.455 0.928,-7.023 0.228,-5.144 -0.7,-10.886 -2.914,-16.012 -2.248,-5.117 -5.594,-9.703 -10.383,-12.631 -0.891,5.621 -1.189,9.999 -1.544,14.002 -0.33,4 -0.614,7.498 -0.753,11.355 -0.083,1.942 -0.096,3.958 -0.045,6.383 0.024,2.523 0.407,5.912 1.257,8.457 C -6.688,-8.764 -4.15,-4.149 0,0"
             style="fill:#940d0a;fill-opacity:1;fill-rule:nonzero;stroke:none"
             id="path860"
             inkscape:connector-curvature="0" /></g><g
           id="g862"
           transform="translate(415.626,221.3945)"><path
             d="m 0,0 c -6.897,0 -12.815,-3.981 -15.344,-9.658 -0.007,0.017 -0.015,0.027 -0.02,0.039 C -17.906,-3.965 -23.81,0 -30.693,0 c -9.194,0 -16.654,-7.084 -16.654,-15.828 0,-8.741 7.46,-15.822 16.654,-15.822 6.883,0 12.787,-1.002 15.329,4.625 0.005,0.013 0.013,0.026 0.02,0.043 2.529,-5.679 8.447,-4.668 15.344,-4.668 9.2,0 16.659,7.082 16.659,15.822 C 16.659,-7.084 9.2,0 0,0"
             style="fill:#f6e9e5;fill-opacity:1;fill-rule:nonzero;stroke:none"
             id="path864"
             inkscape:connector-curvature="0" /></g><g
           id="g866"
           transform="translate(393.3267,192.2852)"><path
             d="m 0,0 c 0,0 -24.067,-61.396 -5.162,-65.797 18.906,-4.402 10.118,50.109 9.665,53.455"
             style="fill:#940d0a;fill-opacity:1;fill-rule:nonzero;stroke:none"
             id="path868"
             inkscape:connector-curvature="0" /></g><g
           id="g870"
           transform="translate(407.1934,192.2852)"><path
             d="m 0,0 c 0,0 24.066,-61.396 5.162,-65.797 -18.905,-4.402 -10.117,50.109 -9.666,53.455"
             style="fill:#940d0a;fill-opacity:1;fill-rule:nonzero;stroke:none"
             id="path872"
             inkscape:connector-curvature="0" /></g><g
           id="g874"
           transform="translate(407.6484,192.1289)"><path
             d="m 0,0 -4.255,2.054 c -0.855,0.414 -1.987,0.622 -3.112,0.622 -1.132,0 -2.256,-0.208 -3.113,-0.622 L -14.736,0 c -1.711,-0.826 -2.257,-2.557 -1.203,-3.848 l 6.659,-8.178 c 0.529,-0.648 1.221,-0.968 1.913,-0.968 0.689,0 1.38,0.32 1.906,0.968 l 6.666,8.178 C 2.251,-2.557 1.711,-0.826 0,0"
             style="fill:#fbdd58;fill-opacity:1;fill-rule:nonzero;stroke:none"
             id="path876"
             inkscape:connector-curvature="0" /></g><g
           id="g878"
           transform="translate(380.0352,208.9453)"><path
             d="M 0,0 C 0,0 12.397,3.594 12.119,-9.012 12.119,-9.012 0,-13.412 0,0"
             style="fill:#ffffff;fill-opacity:1;fill-rule:nonzero;stroke:none"
             id="path880"
             inkscape:connector-curvature="0" /></g><g
           id="g882"
           transform="translate(389.4126,204.332)"><path
             d="m 0,0 c 0,-1.66 -1.344,-3.008 -3.007,-3.008 -1.658,0 -3.003,1.348 -3.003,3.008 0,1.659 1.345,3.006 3.003,3.006 C -1.344,3.006 0,1.659 0,0"
             style="fill:#191009;fill-opacity:1;fill-rule:nonzero;stroke:none"
             id="path884"
             inkscape:connector-curvature="0" /></g><g
           id="g886"
           transform="translate(388.4468,205.7285)"><path
             d="m 0,0 c 0,-0.389 -0.316,-0.705 -0.706,-0.705 -0.389,0 -0.704,0.316 -0.704,0.705 0,0.391 0.315,0.706 0.704,0.706 C -0.316,0.706 0,0.391 0,0"
             style="fill:#ffffff;fill-opacity:1;fill-rule:nonzero;stroke:none"
             id="path888"
             inkscape:connector-curvature="0" /></g><g
           id="g890"
           transform="translate(422.6133,208.9453)"><path
             d="M 0,0 C 0,0 -12.397,3.594 -12.117,-9.012 -12.117,-9.012 0,-13.412 0,0"
             style="fill:#ffffff;fill-opacity:1;fill-rule:nonzero;stroke:none"
             id="path892"
             inkscape:connector-curvature="0" /></g><g
           id="g894"
           transform="translate(412.4844,204.332)"><path
             d="m 0,0 c 0,-1.66 1.345,-3.008 3.006,-3.008 1.66,0 3.006,1.348 3.006,3.008 0,1.659 -1.346,3.006 -3.006,3.006 C 1.345,3.006 0,1.659 0,0"
             style="fill:#191009;fill-opacity:1;fill-rule:nonzero;stroke:none"
             id="path896"
             inkscape:connector-curvature="0" /></g><g
           id="g898"
           transform="translate(413.5713,205.2217)"><path
             d="m 0,0 c 0,-0.39 0.315,-0.706 0.704,-0.706 0.391,0 0.705,0.316 0.705,0.706 0,0.39 -0.314,0.705 -0.705,0.705 C 0.315,0.705 0,0.39 0,0"
             style="fill:#ffffff;fill-opacity:1;fill-rule:nonzero;stroke:none"
             id="path900"
             inkscape:connector-curvature="0" /></g><g
           id="g902"
           transform="translate(393.6538,199.5479)"><path
             d="m 0,0 c -1.798,-5.06 -9.352,-5.317 -10.848,-5.317 -0.3,0 -0.586,0.009 -0.854,0.023 -6.705,0.348 -11.503,4.67 -15.56,14.017 -0.847,1.95 -0.97,3.407 -0.369,4.325 0.8,1.218 3.015,1.836 6.587,1.836 2.761,0 5.833,-0.364 8.544,-0.686 0.653,-0.078 1.281,-0.152 1.874,-0.218 C -3.989,13.245 -0.104,11.838 1.249,9.679 2.646,7.448 1.443,4.065 0.052,0.146 Z m 13.213,0 -0.05,0.146 c -0.806,2.266 -1.545,4.351 -1.756,6.14 l 0.032,0.034 c -0.013,0.012 -0.026,0.022 -0.04,0.034 -0.143,1.276 -0.014,2.401 0.564,3.325 1.354,2.159 5.239,3.566 11.877,4.301 0.592,0.066 1.22,0.14 1.873,0.218 2.71,0.322 5.784,0.686 8.544,0.686 3.571,0 5.786,-0.618 6.587,-1.836 C 41.446,12.13 41.321,10.673 40.475,8.723 36.418,-0.624 31.62,-4.946 24.915,-5.294 24.648,-5.308 24.361,-5.317 24.061,-5.317 22.564,-5.317 15.01,-5.06 13.213,0 m 29.62,14.354 c -0.376,0.573 -0.875,1.054 -1.499,1.454 -1.533,0.984 -3.841,1.456 -7.077,1.456 -2.902,0 -6.049,-0.373 -8.824,-0.702 C 24.788,16.485 24.165,16.411 23.579,16.347 15.963,15.503 11.76,13.837 9.947,10.942 9.343,9.979 9.051,8.954 8.973,7.87 7.271,8.472 5.596,8.208 4.254,7.646 4.203,8.813 3.911,9.913 3.266,10.942 c -1.813,2.895 -6.017,4.561 -13.632,5.405 -0.585,0.064 -1.207,0.138 -1.853,0.215 -2.777,0.329 -5.924,0.702 -8.825,0.702 -0.649,0 -1.257,-0.021 -1.833,-0.06 -3.459,-0.228 -5.625,-1.148 -6.743,-2.85 -0.619,-0.945 -0.848,-2.09 -0.713,-3.414 0.101,-0.961 0.388,-2.013 0.888,-3.165 4.402,-10.143 10.001,-15.051 17.62,-15.446 0.306,-0.016 0.634,-0.025 0.977,-0.025 5.144,0 11.285,1.813 13.091,6.9 l 0.05,0.145 C 2.976,1.269 3.616,3.075 3.972,4.766 4.223,4.952 4.65,5.231 5.196,5.46 6.093,5.837 7.3,6.056 8.557,5.46 8.763,5.364 8.967,5.248 9.174,5.104 9.512,3.316 10.192,1.396 10.918,-0.651 l 0.051,-0.145 c 1.809,-5.087 7.949,-6.9 13.092,-6.9 0.344,0 0.67,0.009 0.977,0.025 7.62,0.395 13.218,5.303 17.621,15.446 0.492,1.132 0.777,2.17 0.881,3.121 0.148,1.341 -0.081,2.501 -0.707,3.458"
             style="fill:#26232c;fill-opacity:1;fill-rule:nonzero;stroke:none"
             id="path904"
             inkscape:connector-curvature="0" /></g></g></g></g></svg>