<?xml version="1.0" encoding="UTF-8" standalone="no"?>
<!-- Created with Inkscape (http://www.inkscape.org/) -->

<svg
   xmlns:dc="http://purl.org/dc/elements/1.1/"
   xmlns:cc="http://creativecommons.org/ns#"
   xmlns:rdf="http://www.w3.org/1999/02/22-rdf-syntax-ns#"
   xmlns:svg="http://www.w3.org/2000/svg"
   xmlns="http://www.w3.org/2000/svg"
   xmlns:sodipodi="http://sodipodi.sourceforge.net/DTD/sodipodi-0.dtd"
   xmlns:inkscape="http://www.inkscape.org/namespaces/inkscape"
   version="1.1"
   id="svg2"
   xml:space="preserve"
   width="226.66666"
   height="226.66933"
   viewBox="0 0 226.66665 226.66932"
   sodipodi:docname="cow.svg"
   inkscape:version="0.92.2 5c3e80d, 2017-08-06"><metadata
     id="metadata8"><rdf:RDF><cc:Work
         rdf:about=""><dc:format>image/svg+xml</dc:format><dc:type
           rdf:resource="http://purl.org/dc/dcmitype/StillImage" /><dc:title></dc:title></cc:Work></rdf:RDF></metadata><defs
     id="defs6"><clipPath
       clipPathUnits="userSpaceOnUse"
       id="clipPath20"><path
         d="M 0,800 H 800 V 0 H 0 Z"
         id="path18"
         inkscape:connector-curvature="0" /></clipPath><clipPath
       clipPathUnits="userSpaceOnUse"
       id="clipPath160"><path
         d="m 563.393,426.148 c 0,-46.945 38.055,-85.001 84.998,-85.001 v 0 c 46.946,0 85.002,38.056 85.002,85.001 v 0 c 0,46.944 -38.056,85.001 -85.002,85.001 v 0 c -46.943,0 -84.998,-38.057 -84.998,-85.001"
         id="path158"
         inkscape:connector-curvature="0" /></clipPath><clipPath
       clipPathUnits="userSpaceOnUse"
       id="clipPath244"><path
         d="m 563.393,646.682 c 0,-46.945 38.055,-85.002 84.998,-85.002 v 0 c 46.946,0 85.002,38.057 85.002,85.002 v 0 c 0,46.943 -38.056,85 -85.002,85 v 0 c -46.943,0 -84.998,-38.057 -84.998,-85"
         id="path242"
         inkscape:connector-curvature="0" /></clipPath><clipPath
       clipPathUnits="userSpaceOnUse"
       id="clipPath336"><path
         d="M 0,800 H 800 V 0 H 0 Z"
         id="path334"
         inkscape:connector-curvature="0" /></clipPath><clipPath
       clipPathUnits="userSpaceOnUse"
       id="clipPath352"><path
         d="m 314.999,646.682 c 0,-46.945 38.055,-85.002 85,-85.002 v 0 c 46.945,0 85.001,38.057 85.001,85.002 v 0 c 0,46.943 -38.056,85 -85.001,85 v 0 c -46.945,0 -85,-38.057 -85,-85"
         id="path350"
         inkscape:connector-curvature="0" /></clipPath><clipPath
       clipPathUnits="userSpaceOnUse"
       id="clipPath484"><path
         d="m 372.237,647.344 h 11.044 v -27.809 h -11.044 z"
         id="path482"
         inkscape:connector-curvature="0" /></clipPath><clipPath
       clipPathUnits="userSpaceOnUse"
       id="clipPath488"><path
         d="m 372.237,619.535 h 11.044 v 27.809 h -11.044 z"
         id="path486"
         inkscape:connector-curvature="0" /></clipPath><clipPath
       clipPathUnits="userSpaceOnUse"
       id="clipPath508"><path
         d="m 412.064,649.341 h 11.4 v -29.406 h -11.4 z"
         id="path506"
         inkscape:connector-curvature="0" /></clipPath><clipPath
       clipPathUnits="userSpaceOnUse"
       id="clipPath512"><path
         d="m 412.064,619.935 h 11.399 v 29.407 h -11.399 z"
         id="path510"
         inkscape:connector-curvature="0" /></clipPath><clipPath
       clipPathUnits="userSpaceOnUse"
       id="clipPath532"><path
         d="m 367.737,645.614 h 9.38 v -25.461 h -9.38 z"
         id="path530"
         inkscape:connector-curvature="0" /></clipPath><clipPath
       clipPathUnits="userSpaceOnUse"
       id="clipPath536"><path
         d="m 367.737,620.153 h 9.38 v 25.461 h -9.38 z"
         id="path534"
         inkscape:connector-curvature="0" /></clipPath><clipPath
       clipPathUnits="userSpaceOnUse"
       id="clipPath556"><path
         d="m 405.746,648.875 h 10.91 v -26.944 h -10.91 z"
         id="path554"
         inkscape:connector-curvature="0" /></clipPath><clipPath
       clipPathUnits="userSpaceOnUse"
       id="clipPath560"><path
         d="m 405.746,621.931 h 10.91 v 26.944 h -10.91 z"
         id="path558"
         inkscape:connector-curvature="0" /></clipPath><clipPath
       clipPathUnits="userSpaceOnUse"
       id="clipPath584"><path
         d="M 0,800 H 800 V 0 H 0 Z"
         id="path582"
         inkscape:connector-curvature="0" /></clipPath><clipPath
       clipPathUnits="userSpaceOnUse"
       id="clipPath596"><path
         d="m 563.393,204.585 c 0,-46.946 38.055,-85.002 84.998,-85.002 v 0 c 46.946,0 85.002,38.056 85.002,85.002 v 0 c 0,46.943 -38.056,85 -85.002,85 v 0 c -46.943,0 -84.998,-38.057 -84.998,-85"
         id="path594"
         inkscape:connector-curvature="0" /></clipPath><clipPath
       clipPathUnits="userSpaceOnUse"
       id="clipPath672"><path
         d="m 67.188,426.148 c 0,-46.945 38.054,-85.001 84.998,-85.001 v 0 c 46.946,0 85.002,38.056 85.002,85.001 v 0 c 0,46.944 -38.056,85.001 -85.002,85.001 v 0 c -46.944,0 -84.998,-38.057 -84.998,-85.001"
         id="path670"
         inkscape:connector-curvature="0" /></clipPath><clipPath
       clipPathUnits="userSpaceOnUse"
       id="clipPath772"><path
         d="m 67.188,204.585 c 0,-46.946 38.054,-85.002 84.998,-85.002 v 0 c 46.946,0 85.002,38.056 85.002,85.002 v 0 c 0,46.943 -38.056,85 -85.002,85 v 0 c -46.944,0 -84.998,-38.057 -84.998,-85"
         id="path770"
         inkscape:connector-curvature="0" /></clipPath><clipPath
       clipPathUnits="userSpaceOnUse"
       id="clipPath848"><path
         d="m 314.999,204.585 c 0,-46.946 38.055,-85.002 84.999,-85.002 v 0 c 46.946,0 85.003,38.056 85.003,85.002 v 0 c 0,46.943 -38.057,85 -85.003,85 v 0 c -46.944,0 -84.999,-38.057 -84.999,-85"
         id="path846"
         inkscape:connector-curvature="0" /></clipPath><clipPath
       clipPathUnits="userSpaceOnUse"
       id="clipPath912"><path
         d="M 0,800 H 800 V 0 H 0 Z"
         id="path910"
         inkscape:connector-curvature="0" /></clipPath><clipPath
       clipPathUnits="userSpaceOnUse"
       id="clipPath924"><path
         d="m 67.188,646.682 c 0,-46.945 38.054,-85.002 84.998,-85.002 v 0 c 46.946,0 85.002,38.057 85.002,85.002 v 0 c 0,46.943 -38.056,85 -85.002,85 v 0 c -46.944,0 -84.998,-38.057 -84.998,-85"
         id="path922"
         inkscape:connector-curvature="0" /></clipPath><clipPath
       clipPathUnits="userSpaceOnUse"
       id="clipPath1008"><path
         d="m 314.999,426.148 c 0,-46.945 38.055,-85.001 85,-85.001 v 0 c 46.945,0 85.001,38.056 85.001,85.001 v 0 c 0,46.944 -38.056,85.001 -85.001,85.001 v 0 c -46.945,0 -85,-38.057 -85,-85.001"
         id="path1006"
         inkscape:connector-curvature="0" /></clipPath></defs><sodipodi:namedview
     pagecolor="#ffffff"
     bordercolor="#666666"
     borderopacity="1"
     objecttolerance="10"
     gridtolerance="10"
     guidetolerance="10"
     inkscape:pageopacity="0"
     inkscape:pageshadow="2"
     inkscape:window-width="1440"
     inkscape:window-height="855"
     id="namedview4"
     showgrid="false"
     inkscape:zoom="0.60187495"
     inkscape:cx="103.43574"
     inkscape:cy="-460.70725"
     inkscape:window-x="0"
     inkscape:window-y="1"
     inkscape:window-maximized="1"
     inkscape:current-layer="g10" /><g
     id="g10"
     inkscape:groupmode="layer"
     inkscape:label="277"
     transform="matrix(1.3333333,0,0,-1.3333333,-419.99999,681.53118)"><g
       id="g4712"><path
         inkscape:connector-curvature="0"
         id="path140"
         style="fill:#dd5877;fill-opacity:1;fill-rule:nonzero;stroke:none"
         d="m 485,426.1484 c 0,46.943 -38.057,85 -85.001,85 -46.945,0 -84.999,-38.057 -84.999,-85 0,-46.945 38.054,-85.002 84.999,-85.002 46.944,0 85.001,38.057 85.001,85.002" /><g
         id="g1004"
         clip-path="url(#clipPath1008)"><g
           id="g1010"
           transform="translate(445.6465,397.1191)"><path
             d="M 0,0 C 0,33.11 -21.08,59.951 -47.084,59.951 -73.09,59.951 -94.17,33.11 -94.17,0 c 0,-33.107 21.08,-59.95 47.086,-59.95 C -21.08,-59.95 0,-33.107 0,0"
             style="fill:#f7eada;fill-opacity:1;fill-rule:nonzero;stroke:none"
             id="path1012"
             inkscape:connector-curvature="0" /></g><g
           id="g1014"
           transform="translate(429.04,438.5869)"><path
             d="m 0,0 c 0,15.937 -26.002,18.734 -26.002,18.734 h -4.476 -4.474 c 0,0 -26.004,-2.797 -26.004,-18.734 0,-15.938 -0.28,-34.953 7.55,-48.931 7.828,-13.98 6.709,-33.551 22.928,-34.671 16.217,1.12 15.1,20.691 22.928,34.671 C 0.278,-34.953 0,-15.938 0,0"
             style="fill:#a7654f;fill-opacity:1;fill-rule:nonzero;stroke:none"
             id="path1016"
             inkscape:connector-curvature="0" /></g><g
           id="g1018"
           transform="translate(417.6084,466.3135)"><path
             d="M 0,0 C 0,0 21.873,4.985 20.193,21.762 27.464,6.943 16.559,-4.521 7.332,-11.23"
             style="fill:#ffffff;fill-opacity:1;fill-rule:nonzero;stroke:none"
             id="path1020"
             inkscape:connector-curvature="0" /></g><g
           id="g1022"
           transform="translate(379.3677,466.3135)"><path
             d="M 0,0 C 0,0 -21.871,4.985 -20.194,21.762 -27.464,6.943 -16.561,-4.521 -7.332,-11.23"
             style="fill:#ffffff;fill-opacity:1;fill-rule:nonzero;stroke:none"
             id="path1024"
             inkscape:connector-curvature="0" /></g><g
           id="g1026"
           transform="translate(422.3018,450.2793)"><path
             d="M 0,0 C 0,0 11.042,13.84 28.798,10.065 26.561,0.976 20.689,-7.412 6.429,-10.766"
             style="fill:#a7654f;fill-opacity:1;fill-rule:nonzero;stroke:none"
             id="path1028"
             inkscape:connector-curvature="0" /></g><g
           id="g1030"
           transform="translate(425.1143,446.8696)"><path
             d="M 0,0 C 0,0 11.398,10.104 20.532,8.16 19.384,3.484 10.209,-4.889 2.87,-6.615"
             style="fill:#f7eada;fill-opacity:1;fill-rule:nonzero;stroke:none"
             id="path1032"
             inkscape:connector-curvature="0" /></g><g
           id="g1034"
           transform="translate(374.5576,450.2793)"><path
             d="m 0,0 c 0,0 -11.042,13.84 -28.799,10.065 2.236,-9.089 8.108,-17.477 22.37,-20.831"
             style="fill:#a7654f;fill-opacity:1;fill-rule:nonzero;stroke:none"
             id="path1036"
             inkscape:connector-curvature="0" /></g><g
           id="g1038"
           transform="translate(371.7437,446.8696)"><path
             d="M 0,0 C 0,0 -11.398,10.104 -20.532,8.16 -19.383,3.484 -10.208,-4.889 -2.87,-6.615"
             style="fill:#f7eada;fill-opacity:1;fill-rule:nonzero;stroke:none"
             id="path1040"
             inkscape:connector-curvature="0" /></g><g
           id="g1042"
           transform="translate(406.9492,401.2578)"><path
             d="m 0,0 c 0,13.981 0.42,27.263 12.164,38.797 11.743,11.534 8.25,20.341 1.399,26.422 -6.85,6.082 -16.917,5.034 -21.95,5.034 -5.032,0 -15.1,1.048 -21.95,-5.034 -6.852,-6.081 -10.345,-14.888 1.399,-26.422 C -17.195,27.263 -16.774,13.981 -16.774,0 c 0,-10.798 -6.99,-17.055 -11.324,-21.949 -4.335,-4.893 -1.891,-14.536 3.143,-14.536 H -8.387 8.179 c 5.034,0 7.477,9.643 3.144,14.536 C 6.989,-17.055 0,-10.798 0,0"
             style="fill:#ffffff;fill-opacity:1;fill-rule:nonzero;stroke:none"
             id="path1044"
             inkscape:connector-curvature="0" /></g><g
           id="g1046"
           transform="translate(425.2871,429.3726)"><path
             d="M 0,0 C 0,0 -12.372,3.586 -12.092,-8.994 -12.092,-8.994 0,-13.385 0,0"
             style="fill:#ffffff;fill-opacity:1;fill-rule:nonzero;stroke:none"
             id="path1048"
             inkscape:connector-curvature="0" /></g><g
           id="g1050"
           transform="translate(415.1787,425.4722)"><path
             d="M 0,0 C 0,-1.657 1.344,-3.001 3.001,-3.001 4.656,-3.001 6,-1.657 6,0 6,1.657 4.656,3 3.001,3 1.344,3 0,1.657 0,0"
             style="fill:#191009;fill-opacity:1;fill-rule:nonzero;stroke:none"
             id="path1052"
             inkscape:connector-curvature="0" /></g><g
           id="g1054"
           transform="translate(416.7734,425.7495)"><path
             d="m 0,0 c 0,-0.389 0.313,-0.705 0.701,-0.705 0.39,0 0.703,0.316 0.703,0.705 0,0.389 -0.313,0.704 -0.703,0.704 C 0.313,0.704 0,0.389 0,0"
             style="fill:#ffffff;fill-opacity:1;fill-rule:nonzero;stroke:none"
             id="path1056"
             inkscape:connector-curvature="0" /></g><g
           id="g1058"
           transform="translate(371.375,429.3726)"><path
             d="M 0,0 C 0,0 12.373,3.586 12.094,-8.994 12.094,-8.994 0,-13.385 0,0"
             style="fill:#ffffff;fill-opacity:1;fill-rule:nonzero;stroke:none"
             id="path1060"
             inkscape:connector-curvature="0" /></g><g
           id="g1062"
           transform="translate(381.4854,425.4722)"><path
             d="m 0,0 c 0,-1.657 -1.342,-3.001 -3,-3.001 -1.658,0 -3.001,1.344 -3.001,3.001 0,1.657 1.343,3 3.001,3 1.658,0 3,-1.343 3,-3"
             style="fill:#191009;fill-opacity:1;fill-rule:nonzero;stroke:none"
             id="path1064"
             inkscape:connector-curvature="0" /></g><g
           id="g1066"
           transform="translate(379.8911,425.7495)"><path
             d="m 0,0 c 0,-0.389 -0.315,-0.705 -0.703,-0.705 -0.389,0 -0.703,0.316 -0.703,0.705 0,0.389 0.314,0.704 0.703,0.704 C -0.315,0.704 0,0.389 0,0"
             style="fill:#ffffff;fill-opacity:1;fill-rule:nonzero;stroke:none"
             id="path1068"
             inkscape:connector-curvature="0" /></g><g
           id="g1070"
           transform="translate(397.998,365.0205)"><path
             d="m 0,0 c 0,0 -5.502,2.622 -10.744,0 -5.24,-2.621 -10.091,-7.209 -13.107,-0.916 0,0 -0.13,-9.831 11.93,-8.649 C 0.133,-8.386 0.525,-1.571 0,0"
             style="fill:#26232c;fill-opacity:1;fill-rule:nonzero;stroke:none"
             id="path1072"
             inkscape:connector-curvature="0" /></g><g
           id="g1074"
           transform="translate(398.2729,365.0205)"><path
             d="m 0,0 c 0,0 5.503,2.622 10.745,0 5.241,-2.621 10.09,-7.209 13.107,-0.916 0,0 0.13,-9.831 -11.929,-8.649 C -0.132,-8.386 -0.527,-1.571 0,0"
             style="fill:#26232c;fill-opacity:1;fill-rule:nonzero;stroke:none"
             id="path1076"
             inkscape:connector-curvature="0" /></g></g></g></g></svg>