<?xml version="1.0" encoding="UTF-8" standalone="no"?>
<!-- Created with Inkscape (http://www.inkscape.org/) -->

<svg
   xmlns:dc="http://purl.org/dc/elements/1.1/"
   xmlns:cc="http://creativecommons.org/ns#"
   xmlns:rdf="http://www.w3.org/1999/02/22-rdf-syntax-ns#"
   xmlns:svg="http://www.w3.org/2000/svg"
   xmlns="http://www.w3.org/2000/svg"
   xmlns:sodipodi="http://sodipodi.sourceforge.net/DTD/sodipodi-0.dtd"
   xmlns:inkscape="http://www.inkscape.org/namespaces/inkscape"
   version="1.1"
   id="svg2"
   xml:space="preserve"
   width="226.66666"
   height="226.66946"
   viewBox="0 0 226.66664 226.66945"
   sodipodi:docname="deer.svg"
   inkscape:version="0.92.2 5c3e80d, 2017-08-06"><metadata
     id="metadata8"><rdf:RDF><cc:Work
         rdf:about=""><dc:format>image/svg+xml</dc:format><dc:type
           rdf:resource="http://purl.org/dc/dcmitype/StillImage" /><dc:title /></cc:Work></rdf:RDF></metadata><defs
     id="defs6"><clipPath
       clipPathUnits="userSpaceOnUse"
       id="clipPath20"><path
         d="M 0,800 H 800 V 0 H 0 Z"
         id="path18"
         inkscape:connector-curvature="0" /></clipPath><clipPath
       clipPathUnits="userSpaceOnUse"
       id="clipPath160"><path
         d="m 563.393,426.148 c 0,-46.945 38.055,-85.001 84.998,-85.001 v 0 c 46.946,0 85.002,38.056 85.002,85.001 v 0 c 0,46.944 -38.056,85.001 -85.002,85.001 v 0 c -46.943,0 -84.998,-38.057 -84.998,-85.001"
         id="path158"
         inkscape:connector-curvature="0" /></clipPath><clipPath
       clipPathUnits="userSpaceOnUse"
       id="clipPath244"><path
         d="m 563.393,646.682 c 0,-46.945 38.055,-85.002 84.998,-85.002 v 0 c 46.946,0 85.002,38.057 85.002,85.002 v 0 c 0,46.943 -38.056,85 -85.002,85 v 0 c -46.943,0 -84.998,-38.057 -84.998,-85"
         id="path242"
         inkscape:connector-curvature="0" /></clipPath><clipPath
       clipPathUnits="userSpaceOnUse"
       id="clipPath336"><path
         d="M 0,800 H 800 V 0 H 0 Z"
         id="path334"
         inkscape:connector-curvature="0" /></clipPath><clipPath
       clipPathUnits="userSpaceOnUse"
       id="clipPath352"><path
         d="m 314.999,646.682 c 0,-46.945 38.055,-85.002 85,-85.002 v 0 c 46.945,0 85.001,38.057 85.001,85.002 v 0 c 0,46.943 -38.056,85 -85.001,85 v 0 c -46.945,0 -85,-38.057 -85,-85"
         id="path350"
         inkscape:connector-curvature="0" /></clipPath><clipPath
       clipPathUnits="userSpaceOnUse"
       id="clipPath484"><path
         d="m 372.237,647.344 h 11.044 v -27.809 h -11.044 z"
         id="path482"
         inkscape:connector-curvature="0" /></clipPath><clipPath
       clipPathUnits="userSpaceOnUse"
       id="clipPath488"><path
         d="m 372.237,619.535 h 11.044 v 27.809 h -11.044 z"
         id="path486"
         inkscape:connector-curvature="0" /></clipPath><clipPath
       clipPathUnits="userSpaceOnUse"
       id="clipPath508"><path
         d="m 412.064,649.341 h 11.4 v -29.406 h -11.4 z"
         id="path506"
         inkscape:connector-curvature="0" /></clipPath><clipPath
       clipPathUnits="userSpaceOnUse"
       id="clipPath512"><path
         d="m 412.064,619.935 h 11.399 v 29.407 h -11.399 z"
         id="path510"
         inkscape:connector-curvature="0" /></clipPath><clipPath
       clipPathUnits="userSpaceOnUse"
       id="clipPath532"><path
         d="m 367.737,645.614 h 9.38 v -25.461 h -9.38 z"
         id="path530"
         inkscape:connector-curvature="0" /></clipPath><clipPath
       clipPathUnits="userSpaceOnUse"
       id="clipPath536"><path
         d="m 367.737,620.153 h 9.38 v 25.461 h -9.38 z"
         id="path534"
         inkscape:connector-curvature="0" /></clipPath><clipPath
       clipPathUnits="userSpaceOnUse"
       id="clipPath556"><path
         d="m 405.746,648.875 h 10.91 v -26.944 h -10.91 z"
         id="path554"
         inkscape:connector-curvature="0" /></clipPath><clipPath
       clipPathUnits="userSpaceOnUse"
       id="clipPath560"><path
         d="m 405.746,621.931 h 10.91 v 26.944 h -10.91 z"
         id="path558"
         inkscape:connector-curvature="0" /></clipPath><clipPath
       clipPathUnits="userSpaceOnUse"
       id="clipPath584"><path
         d="M 0,800 H 800 V 0 H 0 Z"
         id="path582"
         inkscape:connector-curvature="0" /></clipPath><clipPath
       clipPathUnits="userSpaceOnUse"
       id="clipPath596"><path
         d="m 563.393,204.585 c 0,-46.946 38.055,-85.002 84.998,-85.002 v 0 c 46.946,0 85.002,38.056 85.002,85.002 v 0 c 0,46.943 -38.056,85 -85.002,85 v 0 c -46.943,0 -84.998,-38.057 -84.998,-85"
         id="path594"
         inkscape:connector-curvature="0" /></clipPath><clipPath
       clipPathUnits="userSpaceOnUse"
       id="clipPath672"><path
         d="m 67.188,426.148 c 0,-46.945 38.054,-85.001 84.998,-85.001 v 0 c 46.946,0 85.002,38.056 85.002,85.001 v 0 c 0,46.944 -38.056,85.001 -85.002,85.001 v 0 c -46.944,0 -84.998,-38.057 -84.998,-85.001"
         id="path670"
         inkscape:connector-curvature="0" /></clipPath><clipPath
       clipPathUnits="userSpaceOnUse"
       id="clipPath772"><path
         d="m 67.188,204.585 c 0,-46.946 38.054,-85.002 84.998,-85.002 v 0 c 46.946,0 85.002,38.056 85.002,85.002 v 0 c 0,46.943 -38.056,85 -85.002,85 v 0 c -46.944,0 -84.998,-38.057 -84.998,-85"
         id="path770"
         inkscape:connector-curvature="0" /></clipPath><clipPath
       clipPathUnits="userSpaceOnUse"
       id="clipPath848"><path
         d="m 314.999,204.585 c 0,-46.946 38.055,-85.002 84.999,-85.002 v 0 c 46.946,0 85.003,38.056 85.003,85.002 v 0 c 0,46.943 -38.057,85 -85.003,85 v 0 c -46.944,0 -84.999,-38.057 -84.999,-85"
         id="path846"
         inkscape:connector-curvature="0" /></clipPath><clipPath
       clipPathUnits="userSpaceOnUse"
       id="clipPath912"><path
         d="M 0,800 H 800 V 0 H 0 Z"
         id="path910"
         inkscape:connector-curvature="0" /></clipPath><clipPath
       clipPathUnits="userSpaceOnUse"
       id="clipPath924"><path
         d="m 67.188,646.682 c 0,-46.945 38.054,-85.002 84.998,-85.002 v 0 c 46.946,0 85.002,38.057 85.002,85.002 v 0 c 0,46.943 -38.056,85 -85.002,85 v 0 c -46.944,0 -84.998,-38.057 -84.998,-85"
         id="path922"
         inkscape:connector-curvature="0" /></clipPath><clipPath
       clipPathUnits="userSpaceOnUse"
       id="clipPath1008"><path
         d="m 314.999,426.148 c 0,-46.945 38.055,-85.001 85,-85.001 v 0 c 46.945,0 85.001,38.056 85.001,85.001 v 0 c 0,46.944 -38.056,85.001 -85.001,85.001 v 0 c -46.945,0 -85,-38.057 -85,-85.001"
         id="path1006"
         inkscape:connector-curvature="0" /></clipPath></defs><sodipodi:namedview
     pagecolor="#ffffff"
     bordercolor="#666666"
     borderopacity="1"
     objecttolerance="10"
     gridtolerance="10"
     guidetolerance="10"
     inkscape:pageopacity="0"
     inkscape:pageshadow="2"
     inkscape:window-width="1440"
     inkscape:window-height="855"
     id="namedview4"
     showgrid="false"
     inkscape:zoom="2.832318"
     inkscape:cx="113.33334"
     inkscape:cy="113.33473"
     inkscape:window-x="0"
     inkscape:window-y="1"
     inkscape:window-maximized="1"
     inkscape:current-layer="g240" /><g
     id="g10"
     inkscape:groupmode="layer"
     inkscape:label="277"
     transform="matrix(1.3333333,0,0,-1.3333333,-751.19011,975.57611)"><g
       id="g4622"><path
         inkscape:connector-curvature="0"
         id="path132"
         style="fill:#8dd0c7;fill-opacity:1;fill-rule:nonzero;stroke:none"
         d="m 733.3926,646.6821 c 0,46.943 -38.056,85 -85.001,85 -46.944,0 -84.999,-38.057 -84.999,-85 0,-46.945 38.055,-85.002 84.999,-85.002 46.945,0 85.001,38.057 85.001,85.002" /><g
         id="g240"
         clip-path="url(#clipPath244)"><g
           id="g246"
           transform="translate(687.5791,561.6802)"><path
             d="m 0,0 c 0.409,2.833 0.631,15.688 0.631,18.677 0,25.862 -16.018,46.825 -35.778,46.825 -19.758,0 -35.777,-20.963 -35.777,-46.825 0,-2.989 0.224,-15.844 0.633,-18.677 z"
             style="fill:#d39c5b;fill-opacity:1;fill-rule:nonzero;stroke:none"
             id="path248"
             inkscape:connector-curvature="0" /></g><g
           id="g250"
           transform="translate(635.6631,615.002)"><path
             d="m 0,0 c 0,0 -10.201,-23.393 -4.069,-32.337 6.132,-8.945 20.581,-20.985 20.581,-20.985 0,0 22.704,15.137 23.048,26.661 0.343,11.524 -6.537,30.1 -6.537,30.1"
             style="fill:#e2c59b;fill-opacity:1;fill-rule:nonzero;stroke:none"
             id="path252"
             inkscape:connector-curvature="0" /></g><path
           id="path260"
           style="fill:#be7447;fill-opacity:1;fill-rule:nonzero;stroke:none"
           d="m 679.2617,636.1382 c -8.71,-5.484 -26.83,-19.933 -26.83,-19.933 v -32.508 c 4.016,0 11.353,-0.517 13.533,16.684 0.975,9.116 1.147,12.385 8.37,17.888 7.224,5.505 5.901,13.859 4.927,17.869 m -48.7334,-17.8687 c 7.225,-5.503 7.396,-8.772 8.372,-17.889 2.181,-17.2 9.5184,-16.6833 13.5314,-16.6833 l -4e-4,32.5083 c 0,0 -18.119,14.449 -26.83,19.933 -0.971,-4.011 -2.297,-12.365 4.927,-17.869" /><g
           id="g262"
           transform="translate(672.6143,661)"><path
             d="M 0,0 C 0,0 13.028,11.719 28.941,4.724 25.086,-3.888 17.959,-11.141 3.942,-11.862"
             style="fill:#be7447;fill-opacity:1;fill-rule:nonzero;stroke:none"
             id="path264"
             inkscape:connector-curvature="0" /></g><g
           id="g266"
           transform="translate(673.7041,657.085)"><path
             d="M 0,0 C 0,0 13.527,7.96 21.713,4.36 19.73,-0.069 9.511,-6.703 2.297,-7.076"
             style="fill:#191009;fill-opacity:1;fill-rule:nonzero;stroke:none"
             id="path268"
             inkscape:connector-curvature="0" /></g><g
           id="g270"
           transform="translate(631.6699,661.7495)"><path
             d="m 0,0 c 0,0 -13.03,11.719 -28.942,4.725 3.856,-8.613 10.983,-15.865 25.002,-16.587"
             style="fill:#be7447;fill-opacity:1;fill-rule:nonzero;stroke:none"
             id="path272"
             inkscape:connector-curvature="0" /></g><g
           id="g274"
           transform="translate(630.5801,657.835)"><path
             d="M 0,0 C 0,0 -13.527,7.96 -21.713,4.36 -19.731,-0.068 -9.51,-6.703 -2.296,-7.077"
             style="fill:#191009;fill-opacity:1;fill-rule:nonzero;stroke:none"
             id="path276"
             inkscape:connector-curvature="0" /></g><g
           id="g278"
           transform="translate(676.7402,663.3926)"><path
             d="M 0,0 -7.339,3.668 -24.309,-3.211 -41.279,3.668 -48.618,0 c 0,0 0.461,-18.578 -2.751,-27.98 7.567,-2.292 15.823,-16.743 20.181,-31.649 h 6.879 6.88 C -13.07,-44.723 -4.815,-30.272 2.752,-27.98 -0.459,-18.578 0,0 0,0"
             style="fill:#d39c5b;fill-opacity:1;fill-rule:nonzero;stroke:none"
             id="path280"
             inkscape:connector-curvature="0" /></g><g
           id="g282"
           transform="translate(655.6729,605.7227)"><path
             d="M 0,0 C 3.941,0 5.176,-2.54 2.741,-5.641 L 1.184,-7.627 c -2.436,-3.103 -6.417,-3.103 -8.853,0 l -1.556,1.986 C -11.66,-2.54 -10.426,0 -6.484,0 Z"
             style="fill:#191009;fill-opacity:1;fill-rule:nonzero;stroke:none"
             id="path284"
             inkscape:connector-curvature="0" /></g><g
           id="g286"
           transform="translate(678.4063,631.6206)"><path
             d="M 0,0 C 0,0 -11.921,3.458 -11.652,-8.667 -11.652,-8.667 0,-12.898 0,0"
             style="fill:#ffffff;fill-opacity:1;fill-rule:nonzero;stroke:none"
             id="path288"
             inkscape:connector-curvature="0" /></g><g
           id="g290"
           transform="translate(668.667,627.8613)"><path
             d="M 0,0 C 0,-1.595 1.292,-2.891 2.889,-2.891 4.484,-2.891 5.78,-1.595 5.78,0 5.78,1.598 4.484,2.893 2.889,2.893 1.292,2.893 0,1.598 0,0"
             style="fill:#191009;fill-opacity:1;fill-rule:nonzero;stroke:none"
             id="path292"
             inkscape:connector-curvature="0" /></g><g
           id="g294"
           transform="translate(670.2021,628.1294)"><path
             d="M 0,0 C 0,-0.375 0.301,-0.679 0.675,-0.679 1.05,-0.679 1.353,-0.375 1.353,0 1.353,0.375 1.05,0.68 0.675,0.68 0.301,0.68 0,0.375 0,0"
             style="fill:#ffffff;fill-opacity:1;fill-rule:nonzero;stroke:none"
             id="path296"
             inkscape:connector-curvature="0" /></g><g
           id="g298"
           transform="translate(626.4561,631.6206)"><path
             d="M 0,0 C 0,0 11.922,3.458 11.653,-8.667 11.653,-8.667 0,-12.898 0,0"
             style="fill:#ffffff;fill-opacity:1;fill-rule:nonzero;stroke:none"
             id="path300"
             inkscape:connector-curvature="0" /></g><g
           id="g302"
           transform="translate(636.1982,627.8613)"><path
             d="m 0,0 c 0,-1.595 -1.295,-2.891 -2.893,-2.891 -1.596,0 -2.89,1.296 -2.89,2.891 0,1.598 1.294,2.893 2.89,2.893 C -1.295,2.893 0,1.598 0,0"
             style="fill:#191009;fill-opacity:1;fill-rule:nonzero;stroke:none"
             id="path304"
             inkscape:connector-curvature="0" /></g><g
           id="g306"
           transform="translate(634.6611,628.1294)"><path
             d="m 0,0 c 0,-0.375 -0.302,-0.679 -0.678,-0.679 -0.372,0 -0.677,0.304 -0.677,0.679 0,0.375 0.305,0.68 0.677,0.68 C -0.302,0.68 0,0.375 0,0"
             style="fill:#ffffff;fill-opacity:1;fill-rule:nonzero;stroke:none"
             id="path308"
             inkscape:connector-curvature="0" /></g><g
           id="g310"
           transform="translate(667.3652,581.1587)"><path
             d="m 0,0 c -2.066,0.685 -12.361,-5.234 -12.361,-5.234 -0.628,0.671 -1.537,1.096 -2.551,1.096 -1.015,0 -1.922,-0.425 -2.55,-1.096 0,0 -10.313,6.244 -12.274,5.092 -1.961,-1.151 -2.032,-13.355 0,-14.559 2.031,-1.203 12.465,4.902 12.465,4.902 0.615,-0.559 1.445,-0.906 2.359,-0.906 0.915,0 1.743,0.347 2.357,0.905 0,0 10.781,-6.331 12.466,-4.901 C 1.597,-13.27 2.067,-0.685 0,0"
             style="fill:#000000;fill-opacity:1;fill-rule:nonzero;stroke:none"
             id="path312"
             inkscape:connector-curvature="0" /></g><path
           id="path320"
           style="fill:#191009;fill-opacity:1;fill-rule:nonzero;stroke:none"
           d="m 652.4336,595.729 c 0,0 4.523,0.572 5.887,-2.65 1.365,-3.223 4.818,-6.665 6.94,-5.453 3.046,1.74 1.736,5.452 -1.115,6.32 1.981,1.982 7.435,-2.999 3.283,-6.921 -4.351,-4.11 -12.886,0.23 -14.995,4.752 z m 0,0 c 0,0 -4.521,0.572 -5.885,-2.65 -1.364,-3.223 -4.819,-6.665 -6.94,-5.453 -3.046,1.74 -1.736,5.452 1.116,6.32 -1.984,1.982 -7.436,-2.999 -3.282,-6.921 4.349,-4.11 12.885,0.23 14.991,4.752 z" /><g
           id="g322"
           transform="translate(633.8623,614.3569)"><path
             d="m 0,0 c -5.979,0 -10.828,4.849 -10.828,10.828 0,5.979 4.849,10.827 10.828,10.827 5.979,0 10.828,-4.848 10.828,-10.827 C 10.828,4.849 5.979,0 0,0 m 0,23.848 c -7.19,0 -13.021,-5.829 -13.021,-13.02 0,-7.191 5.831,-13.02 13.021,-13.02 7.191,0 13.021,5.829 13.021,13.02 0,7.191 -5.83,13.02 -13.021,13.02"
             style="fill:#000000;fill-opacity:1;fill-rule:nonzero;stroke:none"
             id="path324"
             inkscape:connector-curvature="0" /></g><path
           d="m 616.457,626.487 h 6.372 v -2.604 h -6.372 z"
           style="fill:#000000;fill-opacity:1;fill-rule:nonzero;stroke:none"
           id="path326"
           inkscape:connector-curvature="0" /><path
           d="m 618.857,573.24 h -2.4 v 51.944 h 2.4 z"
           style="fill:#000000;fill-opacity:1;fill-rule:nonzero;stroke:none"
           id="path328"
           inkscape:connector-curvature="0" /></g><path
         style="fill:#d39c5b;fill-opacity:1;fill-rule:nonzero;stroke:none;stroke-width:1.33333325"
         d="m 96.373047,8.9628906 c -3.064926,1.3009174 -6.056837,2.7389104 -8.976563,4.2949214 2.631721,2.04562 5.318183,4.464125 8.078125,7.242188 9.952001,10.016 16.029171,38.935156 11.201171,42.035156 -4.82533,3.1 -16.742171,-0.183047 -21.826171,-2.623047 C 77.676837,47.333185 70.720806,37.777903 63.763672,30.048828 62.545094,31.173883 61.349822,32.323043 60.181641,33.5 c 7.678147,9.297741 14.839544,20.606765 13.878906,24.212891 -1.548,5.793333 -16.45948,7.832838 -30.632813,4.826171 -1.183737,-0.2512 -2.389971,-0.617204 -3.607422,-1.064453 -1.06853,2.072695 -2.069747,4.18543 -3.011718,6.330079 9.19358,3.450586 18.596945,4.56511 26.61914,3.765624 17.993333,-1.793333 28.934568,-1.790572 37.365236,0.996094 8.43467,2.789334 13.68555,21.294922 13.68555,21.294922 l 9.67773,-6.21875 -9.20117,-16.75 c 0,0 3.10441,-16.207526 1.09375,-26.880859 C 112.36705,24.431399 104.65418,14.393843 96.373047,8.9628906 Z M 191.5625,12.074219 c -6.59809,5.935067 -12.40061,15.594289 -15.44531,31.783203 -2.00935,10.673333 1.09375,26.882812 1.09375,26.882812 l -9.20117,16.75 9.67968,6.216797 c 0,0 5.25026,-18.504255 13.6836,-21.294922 8.432,-2.786666 19.37252,-2.788093 37.36718,-0.996093 5.17218,0.515454 10.91859,0.233808 16.8125,-0.953125 -0.98167,-2.400293 -2.0414,-4.759592 -3.17968,-7.074219 -11.96946,1.295951 -22.94981,-0.901426 -24.26367,-5.828125 -0.74334,-2.784931 3.37422,-10.169169 8.81835,-17.669922 -1.1676,-1.370818 -2.36705,-2.714007 -3.59765,-4.027344 -5.27687,6.581023 -10.58331,14.375191 -16.01367,23.898438 -5.08267,2.44 -17.00022,5.721093 -21.82422,2.621093 -4.828,-3.098666 1.24722,-32.017203 11.19922,-42.033203 1.19545,-1.203138 2.37702,-2.337867 3.54687,-3.408203 -2.81297,-1.743601 -5.70597,-3.370071 -8.67578,-4.867187 z"
         transform="matrix(0.75000002,0,0,-0.75000002,542.9296,731.6821)"
         id="path340"
         inkscape:connector-curvature="0" /></g></g></svg>