<?xml version="1.0" encoding="UTF-8" standalone="no"?>
<!-- Created with Inkscape (http://www.inkscape.org/) -->

<svg
   xmlns:dc="http://purl.org/dc/elements/1.1/"
   xmlns:cc="http://creativecommons.org/ns#"
   xmlns:rdf="http://www.w3.org/1999/02/22-rdf-syntax-ns#"
   xmlns:svg="http://www.w3.org/2000/svg"
   xmlns="http://www.w3.org/2000/svg"
   xmlns:sodipodi="http://sodipodi.sourceforge.net/DTD/sodipodi-0.dtd"
   xmlns:inkscape="http://www.inkscape.org/namespaces/inkscape"
   version="1.1"
   id="svg2"
   xml:space="preserve"
   width="226.66666"
   height="226.66992"
   viewBox="0 0 226.66665 226.66991"
   sodipodi:docname="dog.svg"
   inkscape:version="0.92.2 5c3e80d, 2017-08-06"><metadata
     id="metadata8"><rdf:RDF><cc:Work
         rdf:about=""><dc:format>image/svg+xml</dc:format><dc:type
           rdf:resource="http://purl.org/dc/dcmitype/StillImage" /><dc:title /></cc:Work></rdf:RDF></metadata><defs
     id="defs6"><clipPath
       clipPathUnits="userSpaceOnUse"
       id="clipPath20"><path
         d="M 0,800 H 800 V 0 H 0 Z"
         id="path18"
         inkscape:connector-curvature="0" /></clipPath><clipPath
       clipPathUnits="userSpaceOnUse"
       id="clipPath160"><path
         d="m 563.393,426.148 c 0,-46.945 38.055,-85.001 84.998,-85.001 v 0 c 46.946,0 85.002,38.056 85.002,85.001 v 0 c 0,46.944 -38.056,85.001 -85.002,85.001 v 0 c -46.943,0 -84.998,-38.057 -84.998,-85.001"
         id="path158"
         inkscape:connector-curvature="0" /></clipPath><clipPath
       clipPathUnits="userSpaceOnUse"
       id="clipPath244"><path
         d="m 563.393,646.682 c 0,-46.945 38.055,-85.002 84.998,-85.002 v 0 c 46.946,0 85.002,38.057 85.002,85.002 v 0 c 0,46.943 -38.056,85 -85.002,85 v 0 c -46.943,0 -84.998,-38.057 -84.998,-85"
         id="path242"
         inkscape:connector-curvature="0" /></clipPath><clipPath
       clipPathUnits="userSpaceOnUse"
       id="clipPath336"><path
         d="M 0,800 H 800 V 0 H 0 Z"
         id="path334"
         inkscape:connector-curvature="0" /></clipPath><clipPath
       clipPathUnits="userSpaceOnUse"
       id="clipPath352"><path
         d="m 314.999,646.682 c 0,-46.945 38.055,-85.002 85,-85.002 v 0 c 46.945,0 85.001,38.057 85.001,85.002 v 0 c 0,46.943 -38.056,85 -85.001,85 v 0 c -46.945,0 -85,-38.057 -85,-85"
         id="path350"
         inkscape:connector-curvature="0" /></clipPath><clipPath
       clipPathUnits="userSpaceOnUse"
       id="clipPath484"><path
         d="m 372.237,647.344 h 11.044 v -27.809 h -11.044 z"
         id="path482"
         inkscape:connector-curvature="0" /></clipPath><clipPath
       clipPathUnits="userSpaceOnUse"
       id="clipPath488"><path
         d="m 372.237,619.535 h 11.044 v 27.809 h -11.044 z"
         id="path486"
         inkscape:connector-curvature="0" /></clipPath><clipPath
       clipPathUnits="userSpaceOnUse"
       id="clipPath508"><path
         d="m 412.064,649.341 h 11.4 v -29.406 h -11.4 z"
         id="path506"
         inkscape:connector-curvature="0" /></clipPath><clipPath
       clipPathUnits="userSpaceOnUse"
       id="clipPath512"><path
         d="m 412.064,619.935 h 11.399 v 29.407 h -11.399 z"
         id="path510"
         inkscape:connector-curvature="0" /></clipPath><clipPath
       clipPathUnits="userSpaceOnUse"
       id="clipPath532"><path
         d="m 367.737,645.614 h 9.38 v -25.461 h -9.38 z"
         id="path530"
         inkscape:connector-curvature="0" /></clipPath><clipPath
       clipPathUnits="userSpaceOnUse"
       id="clipPath536"><path
         d="m 367.737,620.153 h 9.38 v 25.461 h -9.38 z"
         id="path534"
         inkscape:connector-curvature="0" /></clipPath><clipPath
       clipPathUnits="userSpaceOnUse"
       id="clipPath556"><path
         d="m 405.746,648.875 h 10.91 v -26.944 h -10.91 z"
         id="path554"
         inkscape:connector-curvature="0" /></clipPath><clipPath
       clipPathUnits="userSpaceOnUse"
       id="clipPath560"><path
         d="m 405.746,621.931 h 10.91 v 26.944 h -10.91 z"
         id="path558"
         inkscape:connector-curvature="0" /></clipPath><clipPath
       clipPathUnits="userSpaceOnUse"
       id="clipPath584"><path
         d="M 0,800 H 800 V 0 H 0 Z"
         id="path582"
         inkscape:connector-curvature="0" /></clipPath><clipPath
       clipPathUnits="userSpaceOnUse"
       id="clipPath596"><path
         d="m 563.393,204.585 c 0,-46.946 38.055,-85.002 84.998,-85.002 v 0 c 46.946,0 85.002,38.056 85.002,85.002 v 0 c 0,46.943 -38.056,85 -85.002,85 v 0 c -46.943,0 -84.998,-38.057 -84.998,-85"
         id="path594"
         inkscape:connector-curvature="0" /></clipPath><clipPath
       clipPathUnits="userSpaceOnUse"
       id="clipPath672"><path
         d="m 67.188,426.148 c 0,-46.945 38.054,-85.001 84.998,-85.001 v 0 c 46.946,0 85.002,38.056 85.002,85.001 v 0 c 0,46.944 -38.056,85.001 -85.002,85.001 v 0 c -46.944,0 -84.998,-38.057 -84.998,-85.001"
         id="path670"
         inkscape:connector-curvature="0" /></clipPath><clipPath
       clipPathUnits="userSpaceOnUse"
       id="clipPath772"><path
         d="m 67.188,204.585 c 0,-46.946 38.054,-85.002 84.998,-85.002 v 0 c 46.946,0 85.002,38.056 85.002,85.002 v 0 c 0,46.943 -38.056,85 -85.002,85 v 0 c -46.944,0 -84.998,-38.057 -84.998,-85"
         id="path770"
         inkscape:connector-curvature="0" /></clipPath><clipPath
       clipPathUnits="userSpaceOnUse"
       id="clipPath848"><path
         d="m 314.999,204.585 c 0,-46.946 38.055,-85.002 84.999,-85.002 v 0 c 46.946,0 85.003,38.056 85.003,85.002 v 0 c 0,46.943 -38.057,85 -85.003,85 v 0 c -46.944,0 -84.999,-38.057 -84.999,-85"
         id="path846"
         inkscape:connector-curvature="0" /></clipPath><clipPath
       clipPathUnits="userSpaceOnUse"
       id="clipPath912"><path
         d="M 0,800 H 800 V 0 H 0 Z"
         id="path910"
         inkscape:connector-curvature="0" /></clipPath><clipPath
       clipPathUnits="userSpaceOnUse"
       id="clipPath924"><path
         d="m 67.188,646.682 c 0,-46.945 38.054,-85.002 84.998,-85.002 v 0 c 46.946,0 85.002,38.057 85.002,85.002 v 0 c 0,46.943 -38.056,85 -85.002,85 v 0 c -46.944,0 -84.998,-38.057 -84.998,-85"
         id="path922"
         inkscape:connector-curvature="0" /></clipPath><clipPath
       clipPathUnits="userSpaceOnUse"
       id="clipPath1008"><path
         d="m 314.999,426.148 c 0,-46.945 38.055,-85.001 85,-85.001 v 0 c 46.945,0 85.001,38.056 85.001,85.001 v 0 c 0,46.944 -38.056,85.001 -85.001,85.001 v 0 c -46.945,0 -85,-38.057 -85,-85.001"
         id="path1006"
         inkscape:connector-curvature="0" /></clipPath></defs><sodipodi:namedview
     pagecolor="#ffffff"
     bordercolor="#666666"
     borderopacity="1"
     objecttolerance="10"
     gridtolerance="10"
     guidetolerance="10"
     inkscape:pageopacity="0"
     inkscape:pageshadow="2"
     inkscape:window-width="1440"
     inkscape:window-height="855"
     id="namedview4"
     showgrid="false"
     inkscape:zoom="2.832318"
     inkscape:cx="113.33333"
     inkscape:cy="113.33519"
     inkscape:window-x="0"
     inkscape:window-y="1"
     inkscape:window-maximized="1"
     inkscape:current-layer="g2380" /><g
     id="g10"
     inkscape:groupmode="layer"
     inkscape:label="277"
     transform="matrix(1.3333333,0,0,-1.3333333,-89.583331,975.57611)"><g
       id="g14"><g
         id="g16"
         clip-path="url(#clipPath20)"><g
           id="g122"
           transform="translate(404.8936,40.665)" /></g></g><g
       id="g2380"><path
         d="m 237.1875,646.6821 c 0,46.943 -38.056,85 -85.001,85 -46.944,0 -84.999,-38.057 -84.999,-85 0,-46.945 38.055,-85.002 84.999,-85.002 46.945,0 85.001,38.057 85.001,85.002"
         style="fill:#f9b44d;fill-opacity:1;fill-rule:nonzero;stroke:none"
         id="path916"
         inkscape:connector-curvature="0" /><path
         style="fill:#191009;fill-opacity:1;fill-rule:nonzero;stroke:none;stroke-width:1.33333325"
         d="m 116.35938,149.20117 c -29.314765,0 -53.728959,26.95019 -59.10938,62.63867 16.537282,9.4361 35.679256,14.83008 56.08203,14.83008 22.70552,0 43.84797,-6.68212 61.57813,-18.17969 -4.03095,-21.56139 -15.06688,-39.61062 -29.84375,-49.93554 -8.532,-5.964 -18.3097,-9.35352 -28.70703,-9.35352 z"
         transform="matrix(0.75000002,0,0,-0.75000002,67.1875,731.6821)"
         id="path928"
         inkscape:connector-curvature="0" /><g
         transform="translate(133.7441,616.0415)"
         id="g930"><path
           inkscape:connector-curvature="0"
           id="path932"
           style="fill:#f5f5f5;fill-opacity:1;fill-rule:nonzero;stroke:none"
           d="M 0,0 20.713,-54.361 42.977,-1.192" /></g><g
         transform="translate(134.5879,614.8491)"
         id="g934"><path
           inkscape:connector-curvature="0"
           id="path936"
           style="fill:#434345;fill-opacity:1;fill-rule:nonzero;stroke:none"
           d="m 0,0 19.871,-53.169 21.4,51.175 13.288,-3.449 -12.11,-15.686 7.077,-2.99 -29.655,-29.05 -22.408,22.208 5.542,6.842 -13.63,16.744 z" /></g><g
         transform="translate(167.2822,680.4526)"
         id="g938"><path
           inkscape:connector-curvature="0"
           id="path940"
           style="fill:#a5541c;fill-opacity:1;fill-rule:nonzero;stroke:none"
           d="m 0,0 h -14.877 -14.878 c -4.508,0 -15.101,-6.537 -15.101,-16.681 0,-10.143 1.802,-24.118 9.014,-33.36 7.214,-9.241 -2.704,-22.991 20.965,-22.991 23.668,0 13.75,13.75 20.962,22.991 7.212,9.242 9.017,23.217 9.017,33.36 C 15.102,-6.537 4.506,0 0,0" /></g><g
         transform="translate(149.957,676.5649)"
         id="g942"><path
           inkscape:connector-curvature="0"
           id="path944"
           style="fill:#fefefe;fill-opacity:1;fill-rule:nonzero;stroke:none"
           d="m 0,0 c 0,0 -0.302,-21.64 -6.311,-30.958 -6.011,-9.316 -18.335,-33.059 -6.913,-36.365 11.419,-3.307 12.621,8.717 16.529,8.717 3.907,0 6.24,-10.151 18.032,-7.816 9.843,1.951 3.478,20.802 -6.876,35.04 C 5.087,-18.494 6.311,0 6.311,0 Z" /></g><g
         transform="translate(179.3594,661.3091)"
         id="g946"><path
           inkscape:connector-curvature="0"
           id="path948"
           style="fill:#000000;fill-opacity:1;fill-rule:nonzero;stroke:none"
           d="m 0,0 c -0.607,0 -1.099,0.122 -1.099,0.271 0,0.15 0.492,0.271 1.099,0.271 0.604,0 1.095,-0.121 1.095,-0.271 C 1.095,0.122 0.604,0 0,0 m -1.895,-5.322 c -0.049,-1.978 -0.383,-3.909 -1.087,-5.765 -0.287,-0.751 -0.671,-1.444 -1.254,-2.008 -0.648,-0.631 -1.455,-0.963 -2.314,-1.196 -1.076,-0.292 -2.179,-0.361 -3.291,-0.371 -1.674,-0.016 -3.326,0.194 -4.964,0.542 -1.621,0.346 -2.916,1.193 -3.942,2.479 -1.32,1.649 -2.165,3.521 -2.639,5.569 -0.218,0.945 -0.402,1.897 -0.379,2.876 0.01,0.419 0.054,0.843 0.13,1.258 0.191,1.033 0.822,1.707 1.777,2.095 0.96,0.387 1.962,0.624 2.975,0.824 1.127,0.225 2.26,0.392 3.406,0.465 0.897,0.059 1.795,0.083 2.401,0.11 2.398,-0.118 4.497,-0.294 6.538,-0.876 0.375,-0.107 0.734,-0.279 1.086,-0.445 0.338,-0.158 0.598,-0.416 0.764,-0.749 0.184,-0.369 0.373,-0.738 0.518,-1.122 0.172,-0.451 0.209,-0.933 0.227,-1.412 0.029,-0.758 0.069,-1.517 0.048,-2.274 m -29.346,-0.609 c -0.386,-1.636 -1.019,-3.172 -1.868,-4.621 -0.464,-0.793 -0.991,-1.534 -1.66,-2.17 -0.879,-0.84 -1.937,-1.336 -3.102,-1.642 -2.356,-0.615 -4.737,-0.768 -7.146,-0.408 -0.473,0.071 -0.939,0.195 -1.401,0.312 -0.96,0.246 -1.685,0.803 -2.237,1.625 -0.61,0.908 -0.985,1.908 -1.236,2.963 -0.328,1.377 -0.511,2.777 -0.65,4.184 -0.082,0.816 -0.065,1.63 0.035,2.443 0.052,0.408 0.083,0.822 0.175,1.223 0.329,1.422 1.207,2.329 2.622,2.699 1.291,0.338 2.609,0.538 3.938,0.646 0.985,0.08 1.974,0.121 2.61,0.158 2.268,-0.028 4.173,-0.171 6.046,-0.605 0.765,-0.174 1.542,-0.332 2.241,-0.705 0.344,-0.184 0.678,-0.4 0.979,-0.65 0.497,-0.409 0.75,-0.965 0.855,-1.596 0.221,-1.302 0.096,-2.583 -0.201,-3.856 M -52.452,0 c -0.606,0 -1.097,0.122 -1.097,0.271 0,0.15 0.491,0.271 1.097,0.271 0.607,0 1.097,-0.121 1.097,-0.271 C -51.355,0.122 -51.845,0 -52.452,0 M 2.332,1.776 C 2.32,1.958 2.233,2.073 2.058,2.118 1.933,2.149 1.81,2.185 1.684,2.204 c -1.783,0.28 -3.572,0.553 -5.372,0.68 -1.443,0.099 -2.883,0.163 -4.327,0.227 -2.777,0.125 -5.549,0.064 -8.31,-0.285 -1.688,-0.214 -3.361,-0.518 -4.981,-1.043 -0.821,-0.266 -1.627,-0.575 -2.448,-0.835 -1.284,-0.406 -2.598,-0.59 -3.928,-0.34 -0.797,0.151 -1.589,0.379 -2.363,0.63 -1.402,0.454 -2.806,0.902 -4.261,1.169 -2.829,0.523 -5.681,0.763 -8.34,0.735 -2.167,-0.004 -4.113,-0.079 -6.052,-0.311 -1.589,-0.189 -3.177,-0.402 -4.766,-0.619 -0.337,-0.046 -0.667,-0.145 -0.996,-0.232 -0.177,-0.046 -0.294,-0.165 -0.299,-0.36 -0.033,-0.937 -0.065,-1.875 -0.089,-2.814 -0.003,-0.141 0.033,-0.284 0.054,-0.424 0.017,-0.119 0.084,-0.202 0.197,-0.252 0.122,-0.053 0.247,-0.106 0.354,-0.18 0.522,-0.363 0.772,-0.914 0.972,-1.484 0.141,-0.408 0.235,-0.832 0.351,-1.248 0.074,-0.259 0.172,-0.514 0.231,-0.775 0.274,-1.223 0.531,-2.454 0.811,-3.676 0.271,-1.165 0.621,-2.306 1.179,-3.373 0.622,-1.192 1.51,-2.105 2.77,-2.63 0.765,-0.318 1.557,-0.521 2.371,-0.65 1.457,-0.229 2.925,-0.259 4.397,-0.151 1.489,0.106 2.958,0.333 4.391,0.766 1.064,0.322 2.07,0.771 2.924,1.497 1.302,1.111 2.352,2.429 3.157,3.943 0.808,1.511 1.369,3.118 1.876,4.747 0.147,0.468 0.284,0.938 0.452,1.397 0.253,0.676 0.734,1.094 1.458,1.206 0.228,0.036 0.468,0.044 0.7,0.031 0.541,-0.031 1.061,-0.147 1.423,-0.598 0.156,-0.197 0.301,-0.415 0.405,-0.644 0.197,-0.448 0.382,-0.903 0.53,-1.37 0.637,-2.013 1.48,-3.929 2.546,-5.753 0.886,-1.514 2.053,-2.737 3.6,-3.581 1.095,-0.597 2.263,-0.977 3.483,-1.214 1.833,-0.356 3.686,-0.444 5.547,-0.362 1.125,0.049 2.236,0.192 3.317,0.516 1.113,0.332 2.087,0.873 2.817,1.801 0.473,0.598 0.824,1.264 1.111,1.967 0.606,1.477 0.996,3.019 1.349,4.574 0.172,0.76 0.35,1.519 0.537,2.277 0.096,0.396 0.218,0.785 0.327,1.178 0.103,0.367 0.19,0.74 0.424,1.058 0.232,0.319 0.471,0.633 0.861,0.771 0.171,0.061 0.258,0.181 0.294,0.341 0.028,0.125 0.059,0.253 0.059,0.378 0,0.56 0,1.122 -0.015,1.681 -0.014,0.404 -0.056,0.804 -0.08,1.206" /></g><g
         transform="translate(174.5469,659.5073)"
         id="g950"><path
           inkscape:connector-curvature="0"
           id="path952"
           style="fill:#ffffff;fill-opacity:1;fill-rule:nonzero;stroke:none"
           d="M 0,0 C 0,0 -10.506,3.047 -10.27,-7.64 -10.27,-7.64 0,-11.369 0,0" /></g><g
         transform="translate(165.9629,656.1929)"
         id="g954"><path
           inkscape:connector-curvature="0"
           id="path956"
           style="fill:#191009;fill-opacity:1;fill-rule:nonzero;stroke:none"
           d="m 0,0 c 0,-1.405 1.141,-2.547 2.549,-2.547 1.404,0 2.546,1.142 2.546,2.547 0,1.409 -1.142,2.551 -2.546,2.551 C 1.141,2.551 0,1.409 0,0" /></g><g
         transform="translate(167.3154,656.4302)"
         id="g958"><path
           inkscape:connector-curvature="0"
           id="path960"
           style="fill:#ffffff;fill-opacity:1;fill-rule:nonzero;stroke:none"
           d="M 0,0 C 0,-0.331 0.267,-0.599 0.598,-0.599 0.93,-0.599 1.193,-0.331 1.193,0 1.193,0.33 0.93,0.599 0.598,0.599 0.267,0.599 0,0.33 0,0" /></g><g
         transform="translate(133.7021,659.5073)"
         id="g962"><path
           inkscape:connector-curvature="0"
           id="path964"
           style="fill:#ffffff;fill-opacity:1;fill-rule:nonzero;stroke:none"
           d="M 0,0 C 0,0 10.509,3.047 10.272,-7.64 10.272,-7.64 0,-11.369 0,0" /></g><g
         transform="translate(142.2881,656.1929)"
         id="g966"><path
           inkscape:connector-curvature="0"
           id="path968"
           style="fill:#191009;fill-opacity:1;fill-rule:nonzero;stroke:none"
           d="m 0,0 c 0,-1.405 -1.141,-2.547 -2.548,-2.547 -1.408,0 -2.548,1.142 -2.548,2.547 0,1.409 1.14,2.551 2.548,2.551 C -1.141,2.551 0,1.409 0,0" /></g><g
         transform="translate(140.9336,656.4302)"
         id="g970"><path
           inkscape:connector-curvature="0"
           id="path972"
           style="fill:#ffffff;fill-opacity:1;fill-rule:nonzero;stroke:none"
           d="m 0,0 c 0,-0.331 -0.267,-0.599 -0.597,-0.599 -0.327,0 -0.596,0.268 -0.596,0.599 0,0.33 0.269,0.599 0.596,0.599 C -0.267,0.599 0,0.33 0,0" /></g><g
         transform="translate(133.8984,679.3413)"
         id="g974"><path
           inkscape:connector-curvature="0"
           id="path976"
           style="fill:#883e10;fill-opacity:1;fill-rule:nonzero;stroke:none"
           d="m 0,0 c 0,0 -28.145,-8.691 -26.698,-31.611 1.442,-22.92 7.089,-34.739 14.804,-34.858 7.717,-0.119 11.514,6.662 9.476,27.459 C -4.458,-18.214 0,0 0,0" /></g><g
         transform="translate(171.4648,679.3413)"
         id="g978"><path
           inkscape:connector-curvature="0"
           id="path980"
           style="fill:#883e10;fill-opacity:1;fill-rule:nonzero;stroke:none"
           d="M 0,0 C 0,0 28.146,-8.691 26.7,-31.611 25.258,-54.531 19.611,-66.35 11.894,-66.469 4.176,-66.588 3.655,-59.598 5.693,-38.801 7.732,-18.006 0,0 0,0" /></g><g
         transform="translate(156.9824,626.8394)"
         id="g982"><path
           inkscape:connector-curvature="0"
           id="path984"
           style="fill:#191009;fill-opacity:1;fill-rule:nonzero;stroke:none"
           d="M 0,0 C 3.475,0 4.563,-2.238 2.416,-4.972 L 1.043,-6.723 c -2.147,-2.734 -5.655,-2.734 -7.802,0 L -8.13,-4.972 C -10.278,-2.238 -9.188,0 -5.715,0 Z" /></g><g
         transform="translate(154.125,618.019)"
         id="g986"><path
           inkscape:connector-curvature="0"
           id="path988"
           style="fill:#191009;fill-opacity:1;fill-rule:nonzero;stroke:none"
           d="m 0,0 c 0,0 -5.253,0.665 -6.837,-3.078 -1.584,-3.742 -5.597,-7.741 -8.061,-6.333 -3.538,2.02 -2.015,6.333 1.296,7.341 -2.304,2.302 -8.635,-3.484 -3.812,-8.04 5.051,-4.775 14.967,0.267 17.414,5.52 z" /></g><g
         transform="translate(154.125,618.019)"
         id="g990"><path
           inkscape:connector-curvature="0"
           id="path992"
           style="fill:#191009;fill-opacity:1;fill-rule:nonzero;stroke:none"
           d="m 0,0 c 0,0 5.252,0.665 6.836,-3.078 1.586,-3.742 5.6,-7.741 8.061,-6.333 3.541,2.02 2.017,6.333 -1.294,7.341 2.301,2.302 8.637,-3.484 3.813,-8.04 C 12.364,-14.885 2.448,-9.843 0,-4.59 Z" /></g><g
         transform="translate(184.0127,685.9448)"
         id="g994"><path
           inkscape:connector-curvature="0"
           id="path996"
           style="fill:#000000;fill-opacity:1;fill-rule:nonzero;stroke:none"
           d="m 0,0 c -1.182,13.123 -13.952,4.966 -13.952,4.966 v 12.177 c 0,13.005 -14.351,5.675 -15.841,5.675 -1.49,0 -15.841,7.33 -15.841,-5.675 V 4.966 c 0,0 -12.77,8.157 -13.952,-4.966 -1.182,-13.123 11.94,-13.24 11.94,-13.24 h 17.853 17.853 c 0,0 13.122,0.117 11.94,13.24" /></g><g
         transform="translate(170.0605,690.9106)"
         id="g998"><path
           inkscape:connector-curvature="0"
           id="path1000"
           style="fill:#ffffff;fill-opacity:1;fill-rule:nonzero;stroke:none"
           d="M 0,0 C 0,0 -1.605,-4.876 -15.841,-4.876 -30.076,-4.876 -31.682,0 -31.682,0 c 0,0 -3.181,-3.608 -1.065,-6.976 2.601,-4.137 9.647,-5.32 16.906,-5.32 7.257,0 14.306,1.183 16.906,5.32 C 3.182,-3.608 0,0 0,0" /></g></g></g></svg>