<?xml version="1.0" encoding="UTF-8" standalone="no"?>
<!-- Created with Inkscape (http://www.inkscape.org/) -->

<svg
   xmlns:dc="http://purl.org/dc/elements/1.1/"
   xmlns:cc="http://creativecommons.org/ns#"
   xmlns:rdf="http://www.w3.org/1999/02/22-rdf-syntax-ns#"
   xmlns:svg="http://www.w3.org/2000/svg"
   xmlns="http://www.w3.org/2000/svg"
   xmlns:sodipodi="http://sodipodi.sourceforge.net/DTD/sodipodi-0.dtd"
   xmlns:inkscape="http://www.inkscape.org/namespaces/inkscape"
   version="1.1"
   id="svg2"
   xml:space="preserve"
   width="226.66666"
   height="226.66933"
   viewBox="0 0 226.66665 226.66932"
   sodipodi:docname="panda.svg"
   inkscape:version="0.92.2 5c3e80d, 2017-08-06"><metadata
     id="metadata8"><rdf:RDF><cc:Work
         rdf:about=""><dc:format>image/svg+xml</dc:format><dc:type
           rdf:resource="http://purl.org/dc/dcmitype/StillImage" /><dc:title></dc:title></cc:Work></rdf:RDF></metadata><defs
     id="defs6"><clipPath
       clipPathUnits="userSpaceOnUse"
       id="clipPath20"><path
         d="M 0,800 H 800 V 0 H 0 Z"
         id="path18"
         inkscape:connector-curvature="0" /></clipPath><clipPath
       clipPathUnits="userSpaceOnUse"
       id="clipPath160"><path
         d="m 563.393,426.148 c 0,-46.945 38.055,-85.001 84.998,-85.001 v 0 c 46.946,0 85.002,38.056 85.002,85.001 v 0 c 0,46.944 -38.056,85.001 -85.002,85.001 v 0 c -46.943,0 -84.998,-38.057 -84.998,-85.001"
         id="path158"
         inkscape:connector-curvature="0" /></clipPath><clipPath
       clipPathUnits="userSpaceOnUse"
       id="clipPath244"><path
         d="m 563.393,646.682 c 0,-46.945 38.055,-85.002 84.998,-85.002 v 0 c 46.946,0 85.002,38.057 85.002,85.002 v 0 c 0,46.943 -38.056,85 -85.002,85 v 0 c -46.943,0 -84.998,-38.057 -84.998,-85"
         id="path242"
         inkscape:connector-curvature="0" /></clipPath><clipPath
       clipPathUnits="userSpaceOnUse"
       id="clipPath336"><path
         d="M 0,800 H 800 V 0 H 0 Z"
         id="path334"
         inkscape:connector-curvature="0" /></clipPath><clipPath
       clipPathUnits="userSpaceOnUse"
       id="clipPath352"><path
         d="m 314.999,646.682 c 0,-46.945 38.055,-85.002 85,-85.002 v 0 c 46.945,0 85.001,38.057 85.001,85.002 v 0 c 0,46.943 -38.056,85 -85.001,85 v 0 c -46.945,0 -85,-38.057 -85,-85"
         id="path350"
         inkscape:connector-curvature="0" /></clipPath><clipPath
       clipPathUnits="userSpaceOnUse"
       id="clipPath484"><path
         d="m 372.237,647.344 h 11.044 v -27.809 h -11.044 z"
         id="path482"
         inkscape:connector-curvature="0" /></clipPath><clipPath
       clipPathUnits="userSpaceOnUse"
       id="clipPath488"><path
         d="m 372.237,619.535 h 11.044 v 27.809 h -11.044 z"
         id="path486"
         inkscape:connector-curvature="0" /></clipPath><clipPath
       clipPathUnits="userSpaceOnUse"
       id="clipPath508"><path
         d="m 412.064,649.341 h 11.4 v -29.406 h -11.4 z"
         id="path506"
         inkscape:connector-curvature="0" /></clipPath><clipPath
       clipPathUnits="userSpaceOnUse"
       id="clipPath512"><path
         d="m 412.064,619.935 h 11.399 v 29.407 h -11.399 z"
         id="path510"
         inkscape:connector-curvature="0" /></clipPath><clipPath
       clipPathUnits="userSpaceOnUse"
       id="clipPath532"><path
         d="m 367.737,645.614 h 9.38 v -25.461 h -9.38 z"
         id="path530"
         inkscape:connector-curvature="0" /></clipPath><clipPath
       clipPathUnits="userSpaceOnUse"
       id="clipPath536"><path
         d="m 367.737,620.153 h 9.38 v 25.461 h -9.38 z"
         id="path534"
         inkscape:connector-curvature="0" /></clipPath><clipPath
       clipPathUnits="userSpaceOnUse"
       id="clipPath556"><path
         d="m 405.746,648.875 h 10.91 v -26.944 h -10.91 z"
         id="path554"
         inkscape:connector-curvature="0" /></clipPath><clipPath
       clipPathUnits="userSpaceOnUse"
       id="clipPath560"><path
         d="m 405.746,621.931 h 10.91 v 26.944 h -10.91 z"
         id="path558"
         inkscape:connector-curvature="0" /></clipPath><clipPath
       clipPathUnits="userSpaceOnUse"
       id="clipPath584"><path
         d="M 0,800 H 800 V 0 H 0 Z"
         id="path582"
         inkscape:connector-curvature="0" /></clipPath><clipPath
       clipPathUnits="userSpaceOnUse"
       id="clipPath596"><path
         d="m 563.393,204.585 c 0,-46.946 38.055,-85.002 84.998,-85.002 v 0 c 46.946,0 85.002,38.056 85.002,85.002 v 0 c 0,46.943 -38.056,85 -85.002,85 v 0 c -46.943,0 -84.998,-38.057 -84.998,-85"
         id="path594"
         inkscape:connector-curvature="0" /></clipPath><clipPath
       clipPathUnits="userSpaceOnUse"
       id="clipPath672"><path
         d="m 67.188,426.148 c 0,-46.945 38.054,-85.001 84.998,-85.001 v 0 c 46.946,0 85.002,38.056 85.002,85.001 v 0 c 0,46.944 -38.056,85.001 -85.002,85.001 v 0 c -46.944,0 -84.998,-38.057 -84.998,-85.001"
         id="path670"
         inkscape:connector-curvature="0" /></clipPath><clipPath
       clipPathUnits="userSpaceOnUse"
       id="clipPath772"><path
         d="m 67.188,204.585 c 0,-46.946 38.054,-85.002 84.998,-85.002 v 0 c 46.946,0 85.002,38.056 85.002,85.002 v 0 c 0,46.943 -38.056,85 -85.002,85 v 0 c -46.944,0 -84.998,-38.057 -84.998,-85"
         id="path770"
         inkscape:connector-curvature="0" /></clipPath><clipPath
       clipPathUnits="userSpaceOnUse"
       id="clipPath848"><path
         d="m 314.999,204.585 c 0,-46.946 38.055,-85.002 84.999,-85.002 v 0 c 46.946,0 85.003,38.056 85.003,85.002 v 0 c 0,46.943 -38.057,85 -85.003,85 v 0 c -46.944,0 -84.999,-38.057 -84.999,-85"
         id="path846"
         inkscape:connector-curvature="0" /></clipPath><clipPath
       clipPathUnits="userSpaceOnUse"
       id="clipPath912"><path
         d="M 0,800 H 800 V 0 H 0 Z"
         id="path910"
         inkscape:connector-curvature="0" /></clipPath><clipPath
       clipPathUnits="userSpaceOnUse"
       id="clipPath924"><path
         d="m 67.188,646.682 c 0,-46.945 38.054,-85.002 84.998,-85.002 v 0 c 46.946,0 85.002,38.057 85.002,85.002 v 0 c 0,46.943 -38.056,85 -85.002,85 v 0 c -46.944,0 -84.998,-38.057 -84.998,-85"
         id="path922"
         inkscape:connector-curvature="0" /></clipPath><clipPath
       clipPathUnits="userSpaceOnUse"
       id="clipPath1008"><path
         d="m 314.999,426.148 c 0,-46.945 38.055,-85.001 85,-85.001 v 0 c 46.945,0 85.001,38.056 85.001,85.001 v 0 c 0,46.944 -38.056,85.001 -85.001,85.001 v 0 c -46.945,0 -85,-38.057 -85,-85.001"
         id="path1006"
         inkscape:connector-curvature="0" /></clipPath></defs><sodipodi:namedview
     pagecolor="#ffffff"
     bordercolor="#666666"
     borderopacity="1"
     objecttolerance="10"
     gridtolerance="10"
     guidetolerance="10"
     inkscape:pageopacity="0"
     inkscape:pageshadow="2"
     inkscape:window-width="1440"
     inkscape:window-height="855"
     id="namedview4"
     showgrid="false"
     inkscape:zoom="0.60187495"
     inkscape:cx="-645.8057"
     inkscape:cy="-264.0985"
     inkscape:window-x="0"
     inkscape:window-y="1"
     inkscape:window-maximized="1"
     inkscape:current-layer="g10" /><g
     id="g10"
     inkscape:groupmode="layer"
     inkscape:label="277"
     transform="matrix(1.3333333,0,0,-1.3333333,-751.19011,386.11332)"><g
       id="g4869"><g
         id="g580"
         clip-path="url(#clipPath584)"><g
           id="g586"
           transform="translate(733.3926,204.585)"><path
             d="M 0,0 C 0,46.943 -38.056,85 -85.001,85 -131.945,85 -170,46.943 -170,0 c 0,-46.945 38.055,-85.002 84.999,-85.002 C -38.056,-85.002 0,-46.945 0,0"
             style="fill:#f9b44d;fill-opacity:1;fill-rule:nonzero;stroke:none"
             id="path588"
             inkscape:connector-curvature="0" /></g></g><g
         id="g592"
         clip-path="url(#clipPath596)"><g
           id="g598"
           transform="translate(648.3916,173.1387)"><path
             d="M 0,0 C -28.117,0 -50.914,-23.978 -50.914,-53.556 H 50.916 C 50.916,-23.978 28.121,0 0,0"
             style="fill:#191009;fill-opacity:1;fill-rule:nonzero;stroke:none"
             id="path600"
             inkscape:connector-curvature="0" /></g><g
           id="g602"
           transform="translate(625.9932,168.5938)"><path
             d="M 0,0 22.4,-49.011 46.523,-1.838 61.5,-5.018 47.853,-19.476 55.829,-22.232 22.4,-49.011 l -25.258,20.472 6.246,6.307 -15.364,15.434 z"
             style="fill:#434345;fill-opacity:1;fill-rule:nonzero;stroke:none"
             id="path604"
             inkscape:connector-curvature="0" /></g><g
           id="g606"
           transform="translate(629.3809,236.5723)"><path
             d="m 0,0 c 0,5.371 -4.353,9.723 -9.724,9.723 -5.371,0 -9.722,-4.352 -9.722,-9.723 0,-5.371 4.351,-9.724 9.722,-9.724 C -4.353,-9.724 0,-5.371 0,0"
             style="fill:#191009;fill-opacity:1;fill-rule:nonzero;stroke:none"
             id="path608"
             inkscape:connector-curvature="0" /></g><g
           id="g610"
           transform="translate(686.6982,236.5723)"><path
             d="m 0,0 c 0,5.371 -4.353,9.723 -9.724,9.723 -5.371,0 -9.722,-4.352 -9.722,-9.723 0,-5.371 4.351,-9.724 9.722,-9.724 C -4.353,-9.724 0,-5.371 0,0"
             style="fill:#191009;fill-opacity:1;fill-rule:nonzero;stroke:none"
             id="path612"
             inkscape:connector-curvature="0" /></g><g
           id="g614"
           transform="translate(681.8223,234.9531)"><path
             d="m 0,0 c 0,3.572 -2.895,6.467 -6.466,6.467 -3.572,0 -6.467,-2.895 -6.467,-6.467 0,-3.572 2.895,-6.466 6.467,-6.466 C -2.895,-6.466 0,-3.572 0,0"
             style="fill:#3e3d42;fill-opacity:1;fill-rule:nonzero;stroke:none"
             id="path616"
             inkscape:connector-curvature="0" /></g><g
           id="g618"
           transform="translate(627.3359,234.9531)"><path
             d="m 0,0 c 0,3.572 -2.894,6.467 -6.466,6.467 -3.572,0 -6.466,-2.895 -6.466,-6.467 0,-3.572 2.894,-6.466 6.466,-6.466 C -2.894,-6.466 0,-3.572 0,0"
             style="fill:#3e3d42;fill-opacity:1;fill-rule:nonzero;stroke:none"
             id="path620"
             inkscape:connector-curvature="0" /></g><g
           id="g622"
           transform="translate(689.9717,200.752)"><path
             d="m 0,0 c 0,23.002 -18.646,41.647 -41.648,41.647 -23.001,0 -41.648,-18.645 -41.648,-41.647 0,-23.002 18.647,-41.648 41.648,-41.648 C -18.646,-41.648 0,-23.002 0,0"
             style="fill:#fcfcfc;fill-opacity:1;fill-rule:nonzero;stroke:none"
             id="path624"
             inkscape:connector-curvature="0" /></g><g
           id="g626"
           transform="translate(645.7266,202.6328)"><path
             d="M 0,0 C 2.943,7.029 -3.884,15.813 -12.785,14.194 -21.687,12.576 -31.397,-6.684 -25.733,-12.51 -20.068,-18.336 -4.046,-9.662 0,0"
             style="fill:#191009;fill-opacity:1;fill-rule:nonzero;stroke:none"
             id="path628"
             inkscape:connector-curvature="0" /></g><g
           id="g630"
           transform="translate(639.0908,204.4199)"><path
             d="m 0,0 c 0,2.025 -1.643,3.668 -3.668,3.668 -2.025,0 -3.668,-1.643 -3.668,-3.668 0,-2.025 1.643,-3.668 3.668,-3.668 C -1.643,-3.668 0,-2.025 0,0"
             style="fill:#4e4741;fill-opacity:1;fill-rule:nonzero;stroke:none"
             id="path632"
             inkscape:connector-curvature="0" /></g><g
           id="g634"
           transform="translate(637.21,204.4199)"><path
             d="m 0,0 c 0,0.986 -0.801,1.786 -1.787,1.786 -0.986,0 -1.786,-0.8 -1.786,-1.786 0,-0.986 0.8,-1.787 1.786,-1.787 C -0.801,-1.787 0,-0.986 0,0"
             style="fill:#e3e1e2;fill-opacity:1;fill-rule:nonzero;stroke:none"
             id="path636"
             inkscape:connector-curvature="0" /></g><g
           id="g638"
           transform="translate(650.8047,202.6328)"><path
             d="M 0,0 C -2.944,7.029 3.884,15.813 12.785,14.194 21.687,12.576 31.397,-6.684 25.732,-12.51 20.068,-18.336 4.046,-9.662 0,0"
             style="fill:#191009;fill-opacity:1;fill-rule:nonzero;stroke:none"
             id="path640"
             inkscape:connector-curvature="0" /></g><g
           id="g642"
           transform="translate(657.4395,204.4199)"><path
             d="M 0,0 C 0,2.025 1.643,3.668 3.669,3.668 5.694,3.668 7.337,2.025 7.337,0 7.337,-2.025 5.694,-3.668 3.669,-3.668 1.643,-3.668 0,-2.025 0,0"
             style="fill:#4e4741;fill-opacity:1;fill-rule:nonzero;stroke:none"
             id="path644"
             inkscape:connector-curvature="0" /></g><g
           id="g646"
           transform="translate(659.3213,204.4199)"><path
             d="M 0,0 C 0,0.986 0.801,1.786 1.787,1.786 2.772,1.786 3.573,0.986 3.573,0 3.573,-0.986 2.772,-1.787 1.787,-1.787 0.801,-1.787 0,-0.986 0,0"
             style="fill:#e3e1e2;fill-opacity:1;fill-rule:nonzero;stroke:none"
             id="path648"
             inkscape:connector-curvature="0" /></g><g
           id="g650"
           transform="translate(650.9648,187.5078)"><path
             d="M 0,0 C 3.128,0 4.108,-2.015 2.176,-4.475 L 0.939,-6.053 c -1.931,-2.461 -5.092,-2.461 -7.023,0 L -7.32,-4.475 C -9.253,-2.015 -8.272,0 -5.146,0 Z"
             style="fill:#191009;fill-opacity:1;fill-rule:nonzero;stroke:none"
             id="path652"
             inkscape:connector-curvature="0" /></g><g
           id="g654"
           transform="translate(638.8027,177.1816)"><path
             d="m 0,0 c 0,0 5.422,-1.699 9.468,2.428 3.56,-2.832 5.826,-3.664 9.711,-1.387 C 15.213,-3.318 10.729,-1.965 9.354,-1.641 6.279,-2.449 0.81,-2.266 0,0"
             style="fill:#191009;fill-opacity:1;fill-rule:nonzero;stroke:none"
             id="path656"
             inkscape:connector-curvature="0" /></g><g
           id="g658"
           transform="translate(651.1182,147.7383)"><path
             d="M 0,0 C 0,1.504 -1.221,2.724 -2.725,2.724 -4.229,2.724 -5.45,1.504 -5.45,0 c 0,-1.506 1.221,-2.725 2.725,-2.725 C -1.221,-2.725 0,-1.506 0,0"
             style="fill:#434345;fill-opacity:1;fill-rule:nonzero;stroke:none"
             id="path660"
             inkscape:connector-curvature="0" /></g><g
           id="g662"
           transform="translate(651.1182,138.3066)"><path
             d="M 0,0 C 0,1.505 -1.221,2.725 -2.725,2.725 -4.229,2.725 -5.45,1.505 -5.45,0 c 0,-1.505 1.221,-2.725 2.725,-2.725 C -1.221,-2.725 0,-1.505 0,0"
             style="fill:#434345;fill-opacity:1;fill-rule:nonzero;stroke:none"
             id="path664"
             inkscape:connector-curvature="0" /></g></g></g></g></svg>